<svg width="1920" height="450" viewBox="0 0 1920 450" fill="none" xmlns="http://www.w3.org/2000/svg">
<mask id="mask0_308_2181" style="mask-type:alpha" maskUnits="userSpaceOnUse" x="0" y="0" width="1920" height="450">
<rect width="1920" height="450" fill="#E3F1E9"/>
</mask>
<g mask="url(#mask0_308_2181)">
<path d="M818.11 110.842C811.887 108.701 804.175 104.887 804.105 97.2582C804.065 92.0815 807.036 87.3068 808.463 82.4498C811.205 73.1058 807.662 62.8721 801.691 55.5725C795.565 48.0712 786.584 42.7753 777.005 41.1824C772.301 40.3926 767.437 40.5288 762.824 41.7565C758.192 42.9849 753.762 45.2781 749.667 47.7393C740.554 53.236 732.459 60.5986 725.927 68.992C719.513 77.2407 714.325 86.8224 712.394 97.1837C711.51 101.967 711.31 106.973 712.165 111.785C713.201 117.569 716.047 122.901 719.777 127.387C727.413 136.56 738.816 142.69 750.363 145.329C761.881 147.941 773.722 144.951 782.074 136.462C786.437 132.028 789.348 126.579 792.175 121.104C793.61 118.333 795.313 115.375 798.457 114.354C801.555 113.344 804.743 114.332 807.61 115.566C810.078 116.643 812.423 117.987 814.89 119.046C815.328 119.238 815.747 119.103 816.016 118.7C817.208 116.848 818.631 115.177 819.373 113.067C819.717 112.06 818.099 111.688 817.754 112.696C817.082 114.634 815.647 116.221 814.554 117.929C814.936 117.813 815.298 117.698 815.68 117.583C811.08 115.615 806.53 112.273 801.324 112.289C794.85 112.317 792.183 117.467 789.589 122.559C786.817 127.975 783.494 133.184 778.856 137.213C774.428 141.057 768.943 143.581 763.131 144.34C751.227 145.903 738.484 140.793 729.036 133.783C724.206 130.197 719.933 125.766 717.032 120.473C714.321 115.523 713.174 110.09 713.289 104.457C713.491 94.1133 717.662 84.1599 723.23 75.5905C729.067 66.6177 736.732 58.7238 745.427 52.5074C753.213 46.9496 762.214 42.0955 772.024 42.3561C781.796 42.6178 791.317 47.1823 798.131 54.1072C804.741 60.8413 809.363 70.9749 807.209 80.5444C806.113 85.4379 803.385 89.8571 802.601 94.844C801.757 100.284 804.344 105.173 808.792 108.273C811.501 110.16 814.584 111.396 817.69 112.453C818.754 112.814 819.117 111.186 818.11 110.842Z" fill="#D1D1D1"/>
<path d="M812.376 111.42C808.849 109.822 805.171 108.52 801.794 106.607C800.149 105.682 798.592 104.585 797.253 103.237C795.758 101.706 794.759 99.8208 793.751 97.9452C790.605 92.0029 788.932 85.3839 785.397 79.6419C778.794 68.9419 766.417 62.2976 754.061 61.1409C747.161 60.4962 740.186 61.6207 733.969 64.7321C733.006 65.2139 733.887 66.6236 734.84 66.1516C746.082 60.54 759.754 61.9838 770.523 67.9744C776.251 71.1655 781.214 75.6967 784.513 81.3993C787.801 87.074 789.44 93.5154 792.581 99.27C794.515 102.817 796.78 105.526 800.267 107.652C803.83 109.813 807.811 111.18 811.595 112.892C812.567 113.331 813.358 111.868 812.376 111.42Z" fill="#D1D1D1"/>
<path d="M793.553 106.616C774.44 103.654 754.056 103.345 736.485 94.376C731.385 91.7757 726.742 88.4372 722.76 84.3353C722.022 83.5694 720.885 84.7803 721.623 85.5462C736.013 100.33 757.261 103.656 776.818 106.087C782.281 106.768 787.75 107.383 793.19 108.225C794.229 108.399 794.601 106.78 793.553 106.616Z" fill="#D1D1D1"/>
<path d="M784.032 96.3469C772.151 81.5674 752.863 73.903 734.323 72.4453C733.259 72.357 733.32 74.0184 734.375 74.0976C752.255 75.5011 771.151 82.9431 782.611 97.2004C783.267 98.0347 784.687 97.1812 784.032 96.3469Z" fill="#D1D1D1"/>
<path d="M767.737 92.7126C760.036 91.6424 752.836 88.2915 746.37 84.0807C745.478 83.4983 744.697 84.9704 745.589 85.5528C752.16 89.826 759.531 93.2467 767.365 94.3315C768.413 94.4766 768.804 92.8572 767.737 92.7126Z" fill="#D1D1D1"/>
<path d="M787.386 113.381C779.136 115.824 770.647 117.824 761.994 117.592C752.73 117.333 744.193 114.203 736.018 110.028C730.317 107.118 724.513 103.638 721.114 98.0422C720.559 97.1202 719.139 97.9924 719.695 98.9145C722.647 103.764 727.329 107.138 732.198 109.887C736.732 112.43 741.493 114.731 746.423 116.407C754.763 119.261 763.522 119.884 772.232 118.619C777.536 117.839 782.729 116.518 787.859 114.992C788.883 114.677 788.41 113.085 787.386 113.381Z" fill="#D1D1D1"/>
<path d="M784.705 119.96C778.73 126.635 770.882 131.387 762.033 132.994C751.969 134.809 741.757 132.493 733.559 126.383C728.613 122.688 724.401 118.114 719.917 113.887C719.143 113.16 717.996 114.362 718.781 115.098C727.118 122.961 735 131.91 746.739 134.365C755.754 136.248 765.19 135.083 773.404 130.893C778.158 128.467 782.365 125.072 785.925 121.105C786.632 120.294 785.422 119.157 784.705 119.96Z" fill="#D1D1D1"/>
<path d="M758.512 124.93C752.624 125.09 746.702 123.813 742.026 120.062C741.197 119.393 740.061 120.604 740.89 121.273C745.912 125.313 752.207 126.776 758.554 126.592C759.634 126.567 759.582 124.896 758.512 124.93Z" fill="#D1D1D1"/>
<path d="M773.419 110.988C766.246 110.888 759.185 109.581 752.227 107.933C751.185 107.684 750.813 109.303 751.854 109.552C758.946 111.233 766.157 112.554 773.462 112.65C774.543 112.663 774.491 111.01 773.419 110.988Z" fill="#D1D1D1"/>
<path d="M736.92 102.547C733.24 100.86 729.608 99.1996 726.88 96.1102C726.169 95.3152 725.032 96.5262 725.743 97.3211C728.569 100.52 732.354 102.27 736.158 104.018C737.112 104.458 737.902 102.995 736.92 102.547Z" fill="#D1D1D1"/>
<path d="M734.754 83.5112C731.307 82.0611 728.037 80.267 724.581 78.8266C723.6 78.4161 722.819 79.8883 723.8 80.2987C727.247 81.7488 730.517 83.5429 733.974 84.9833C734.963 85.384 735.745 83.9307 734.754 83.5112Z" fill="#D1D1D1"/>
<path d="M800.207 90.3898C798.308 82.5564 796.959 74.2732 791.914 67.7147C786.604 60.817 778.714 55.8153 770.295 53.7437C765.399 52.5371 760.315 52.2668 755.301 52.6804C754.232 52.7708 754.284 54.4232 755.353 54.3327C766.685 53.3983 777.352 56.432 785.996 63.9094C789.918 67.2991 792.894 71.4237 794.729 76.2802C796.502 80.9882 797.419 85.9866 798.615 90.8634C798.873 91.9077 800.456 91.425 800.207 90.3898Z" fill="#D1D1D1"/>
<path d="M800.689 68.2437C798.529 64.3937 796.376 60.4778 793.453 57.1315C790.47 53.7119 786.71 51.2944 782.374 49.9572C781.359 49.6418 780.986 51.2607 782.002 51.576C786.206 52.8799 789.749 55.3136 792.589 58.672C795.272 61.8286 797.249 65.5246 799.269 69.1159C799.796 70.0482 801.207 69.1857 800.689 68.2437Z" fill="#D1D1D1"/>
<path d="M533.09 102.061C535.819 93.5701 535.573 83.1012 532.542 74.7289C530.45 68.9662 525.665 61.4595 518.413 63.067C512.061 64.484 509.418 72.1141 509.518 77.8917C509.64 84.3812 511.507 91.2522 514.871 96.8286C516.528 99.5772 518.766 102.275 521.741 103.686C524.864 105.173 528.158 104.874 531.238 103.432C532.914 102.65 531.396 100.221 529.736 100.986C518.692 106.131 513.297 87.9403 512.525 80.3381C512.032 75.4474 512.739 69.0773 517.595 66.4126C523.118 63.3704 527.838 70.3448 529.463 74.6651C532.572 82.9539 533.016 92.9793 530.302 101.454C529.741 103.188 532.53 103.828 533.09 102.061Z" fill="#E1D4DB"/>
<path d="M530.9 101.484C527.4 95.718 525.783 89.0496 523.978 82.6138C523.485 80.8321 520.726 81.6649 521.235 83.4299C523.111 90.0901 524.85 96.9976 528.469 102.971C529.409 104.544 531.872 103.057 530.9 101.484Z" fill="#E1D4DB"/>
<path d="M511.466 109.082C507.059 105.919 502.56 102.889 497.875 100.123C492.529 96.958 486.559 93.4887 480.328 92.5376C478.131 92.2028 475.686 92.1998 473.801 93.5391C471.726 95.014 471.16 97.6229 471.219 100.034C471.305 103.82 472.401 107.801 474.73 110.803C477.396 114.249 481.209 116.572 485.254 118.014C493.916 121.09 505.996 120.559 511.379 112.016C512.367 110.462 509.816 109.135 508.844 110.671C504.648 117.347 495.042 117.75 488.201 115.944C484.429 114.947 480.745 113.122 478.033 110.293C475.59 107.748 474.449 104.416 474.13 100.945C474.03 99.8146 473.992 98.6176 474.33 97.5219C474.536 96.8352 474.954 96.2228 475.349 95.9349C476.599 95.0044 478.481 95.1064 480.191 95.4243C485.744 96.4294 490.988 99.436 495.803 102.23C498.64 103.888 501.416 105.646 504.144 107.453C505.203 108.164 506.261 108.875 507.321 109.619C507.768 109.945 508.215 110.238 508.662 110.564C509.059 110.843 509.358 111.06 509.507 111.169C510.997 112.222 512.973 110.151 511.466 109.082Z" fill="#E1D4DB"/>
<path d="M509.256 110.399C503.086 109.349 497.234 107.091 491.284 105.305C489.519 104.778 488.878 107.568 490.643 108.094C496.593 109.88 502.444 112.139 508.614 113.189C510.421 113.504 511.078 110.698 509.256 110.399Z" fill="#E1D4DB"/>
<path d="M500.066 80.1037C498.895 72.6923 497.393 64.5304 492.542 58.5318C489.577 54.8695 485.17 51.1723 480.414 50.2875C478.379 49.9152 476.25 50.1774 474.675 51.6201C472.865 53.2809 472.395 55.8544 472.274 58.19C471.979 64.2879 475.844 69.7999 480.254 73.6265C485.081 77.8123 491.387 81.1252 497.862 81.5827C499.695 81.7024 499.59 78.8396 497.773 78.7356C493.051 78.4165 488.363 76.0885 484.554 73.3923C480.431 70.4633 476.578 66.3759 475.4 61.3128C474.653 58.1304 474.992 52.4197 479.497 53.0372C483.432 53.5595 487.125 56.7127 489.692 59.5618C494.608 65.0564 496.092 73.1379 497.203 80.1788C497.486 81.9833 500.35 81.9082 500.066 80.1037Z" fill="#E1D4DB"/>
<path d="M498.345 77.9239C494.441 74.2592 490.962 70.2085 487.059 66.5438C485.724 65.291 483.748 67.3618 485.1 68.6304C489.004 72.2951 492.482 76.3458 496.386 80.0104C497.737 81.279 499.696 79.1925 498.345 77.9239Z" fill="#E1D4DB"/>
<path d="M1142.37 387.265C1168.85 398.94 1206.44 402.314 1229.52 381.657C1230.15 381.097 1230.05 380.112 1229.53 379.505C1223.93 373.079 1215.18 369.648 1207.35 366.785C1198.01 363.351 1188.82 361.101 1178.81 361.009C1169.58 360.92 1161.41 362.733 1153.18 366.944C1149.05 369.044 1145.11 371.502 1141.24 374.031C1139.52 375.166 1137.78 376.323 1136.07 377.492C1134.87 378.311 1133.24 378.996 1132.5 380.278C1132.07 381.034 1132.38 381.89 1133.05 382.333C1135.98 384.358 1139.29 385.568 1142.37 387.265C1144.08 388.195 1145.62 385.58 1143.89 384.639C1140.8 382.942 1137.49 381.731 1134.58 379.739C1134.77 380.436 1134.95 381.132 1135.13 381.795C1135.63 380.933 1138.07 379.819 1139.03 379.171C1140.64 378.082 1142.27 377.007 1143.89 375.952C1147.38 373.683 1150.95 371.485 1154.67 369.6C1162.62 365.556 1170.45 363.94 1179.35 364.064C1188.64 364.189 1197.11 366.309 1205.79 369.441C1213.34 372.147 1221.95 375.438 1227.37 381.647C1227.37 380.918 1227.38 380.223 1227.38 379.494C1216.25 389.435 1201.18 393.115 1186.57 393.311C1172.02 393.51 1157.21 390.508 1143.87 384.627C1142.12 383.869 1140.58 386.483 1142.37 387.265Z" fill="#DDD9DA"/>
<path d="M1137.66 382.165C1153.27 379.605 1169.12 378.864 1184.92 379.131C1191.72 379.248 1198.49 379.036 1205.29 378.957C1212.39 378.885 1219.74 379.034 1226.48 381.582C1228.3 382.268 1229.07 379.325 1227.25 378.639C1220.75 376.203 1213.65 375.884 1206.8 375.905C1199.5 375.922 1192.24 376.213 1184.94 376.088C1168.85 375.826 1152.8 376.641 1136.91 379.239C1134.96 379.567 1135.76 382.496 1137.66 382.165Z" fill="#DDD9DA"/>
<path d="M1218.12 381.775C1201.83 385.229 1185.27 389.057 1168.5 387.416C1166.56 387.223 1166.58 390.258 1168.51 390.45C1185.52 392.117 1202.37 388.229 1218.9 384.713C1220.81 384.307 1220.03 381.389 1218.12 381.775Z" fill="#DDD9DA"/>
<path d="M1194.02 369.927C1184.45 368.862 1175.07 370.112 1165.63 371.554C1163.7 371.84 1164.5 374.77 1166.41 374.472C1175.63 373.07 1184.74 371.912 1194.04 372.941C1195.97 373.188 1195.94 370.141 1194.02 369.927Z" fill="#DDD9DA"/>
<path d="M1164.05 382.973C1159.97 382.52 1155.94 381.592 1151.81 381.506C1150.98 381.479 1150.3 382.231 1150.3 383.047C1150.3 383.883 1151.01 384.546 1151.84 384.553C1155.97 384.639 1160.01 385.567 1164.09 386.019C1164.91 386.102 1165.6 385.241 1165.6 384.479C1165.57 383.597 1164.86 383.076 1164.05 382.973Z" fill="#DDD9DA"/>
<path d="M1115.69 359.672C1144.69 358.147 1179.55 344.147 1190.89 315.279C1191.22 314.462 1190.48 313.7 1189.8 313.42C1181.79 310.164 1172.2 311.13 1163.85 312.138C1154.63 313.257 1146.04 315.164 1137.59 319.166C1129.11 323.178 1122.35 328.326 1116.69 335.846C1113.78 339.715 1111.25 343.857 1108.83 348.06C1107.75 349.93 1106.68 351.833 1105.62 353.716C1104.87 355.052 1103.73 356.407 1103.64 357.957C1103.61 358.552 1104.14 359.335 1104.79 359.428C1108.43 359.963 1112.03 359.549 1115.69 359.672C1117.64 359.735 1117.63 356.701 1115.68 356.638C1112.3 356.511 1108.9 356.958 1105.55 356.506C1105.93 357.007 1106.31 357.476 1106.69 357.977C1106.75 357.002 1108.55 354.708 1109.14 353.678C1110.14 351.901 1111.14 350.124 1112.18 348.371C1114.38 344.6 1116.69 340.891 1119.33 337.397C1124.74 330.21 1131.43 325.416 1139.53 321.632C1147.62 317.868 1155.9 316.149 1164.71 315.125C1172.58 314.208 1181.52 313.345 1189.04 316.396C1188.67 315.765 1188.32 315.168 1187.95 314.537C1182.49 328.418 1170.63 338.467 1157.68 345.22C1144.77 351.944 1130.21 355.894 1115.7 356.65C1113.73 356.749 1113.75 359.783 1115.69 359.672Z" fill="#DDD9DA"/>
<path d="M1108.85 357.433C1122.02 347.833 1136.2 339.827 1150.87 332.775C1156.92 329.877 1162.76 326.609 1168.71 323.543C1174.69 320.467 1181.02 317.457 1187.78 316.734C1189.69 316.523 1189.7 313.501 1187.76 313.699C1174.5 315.118 1163.14 323.576 1151.38 329.174C1136.01 336.467 1121.11 344.756 1107.35 354.799C1105.79 355.944 1107.3 358.579 1108.85 357.433Z" fill="#DDD9DA"/>
<path d="M1180.68 320.676C1167.82 331.012 1154.84 341.875 1139.3 347.918C1137.5 348.614 1138.27 351.552 1140.08 350.835C1156.16 344.596 1169.5 333.528 1182.82 322.839C1184.34 321.615 1182.19 319.473 1180.68 320.676Z" fill="#DDD9DA"/>
<path d="M1154.17 320.807C1145.13 324.166 1137.32 329.436 1129.52 334.989C1127.94 336.122 1129.45 338.757 1131.03 337.624C1138.59 332.241 1146.18 327.012 1154.95 323.725C1156.77 323.041 1155.99 320.123 1154.17 320.807Z" fill="#DDD9DA"/>
<path d="M1133.31 345.948C1129.34 347.437 1125.21 348.472 1121.37 350.317C1120.67 350.665 1120.4 351.715 1120.79 352.391C1121.26 353.137 1122.11 353.318 1122.87 352.973C1123.81 352.507 1124.54 352.204 1125.45 351.856C1126.41 351.49 1127.39 351.158 1128.37 350.825C1130.28 350.19 1132.18 349.609 1134.07 348.908C1134.82 348.637 1135.42 347.891 1135.14 347.059C1134.96 346.308 1134.12 345.66 1133.31 345.948Z" fill="#DDD9DA"/>
<path d="M1298.95 80.2855C1304.7 72.1359 1309.88 62.4138 1310.29 52.2673C1310.68 42.6435 1305.54 34.6662 1297.01 30.3103C1289.24 26.3441 1280.09 25.075 1271.44 24.7474C1261.77 24.382 1251.77 25.2447 1242.46 28.0649C1235.87 30.0732 1228.84 33.155 1225.75 39.7234C1223.04 45.4563 1224.13 52.0453 1226.17 57.7719C1228.65 64.7548 1232.68 71.1561 1237.04 77.106C1241.11 82.7003 1245.6 88.4359 1250.8 93.0229C1257.49 98.927 1266.18 102.123 1275.05 99.5534C1285.28 96.5932 1292.08 88.3892 1299.04 80.8935C1299.97 79.8849 1298.56 78.2607 1297.61 79.2769C1291.71 85.6494 1286.08 92.5928 1277.93 96.2206C1270.91 99.3562 1263.34 98.8282 1256.82 94.8244C1250.9 91.1628 1246.33 85.4652 1242.03 80.077C1237.85 74.8203 1233.96 69.2503 1230.92 63.2478C1228.16 57.8161 1225.74 51.5487 1226.4 45.3253C1227.1 38.8944 1231.68 34.712 1237.38 32.1825C1245.26 28.6682 1254.18 27.3369 1262.7 26.9256C1271.52 26.501 1280.65 27.0549 1289.13 29.5496C1298.56 32.32 1307.05 38.4747 1308.05 48.8921C1309.08 59.6712 1303.17 70.5339 1297.15 79.0816C1296.35 80.2372 1298.14 81.4257 1298.95 80.2855Z" fill="#D3CBCF"/>
<path d="M1299.04 80.9088C1300.78 78.9368 1302.9 77.1212 1305.54 76.6163C1307.72 76.2005 1309.94 76.7844 1311.9 77.7358C1316.49 79.9659 1320.19 83.7969 1324.09 86.9911C1326.12 88.6579 1328.23 90.2638 1330.68 91.303C1330.83 90.6197 1330.97 89.921 1331.11 89.2222C1320.35 87.404 1306.46 89.4167 1299.56 79.1131C1298.79 77.9776 1297.17 79.3968 1297.92 80.5398C1305.22 91.4151 1319.61 89.4442 1330.94 91.3663C1332.22 91.5826 1332.44 89.7233 1331.39 89.2779C1326.7 87.2701 1323 83.1316 1319.1 79.9912C1315.33 76.9594 1310.69 73.7063 1305.55 74.4327C1302.35 74.8877 1299.69 76.9457 1297.61 79.2998C1296.7 80.3316 1298.11 81.9558 1299.04 80.9088Z" fill="#D3CBCF"/>
<path d="M1298.33 82.0421C1303.78 87.861 1308.08 95.6559 1306.44 103.864C1307 103.591 1307.56 103.318 1308.12 103.045C1304.46 100.875 1301.92 97.075 1300.26 93.2425C1298.61 89.4099 1297.57 84.7973 1298.95 80.7084C1299.38 79.3889 1297.35 78.6985 1296.92 80.0181C1295.39 84.5596 1296.4 89.5872 1298.19 93.8897C1299.98 98.1537 1302.86 102.44 1306.93 104.829C1307.68 105.264 1308.45 104.816 1308.61 104.01C1310.36 95.2715 1305.77 86.798 1299.98 80.6078C1299.01 79.6094 1297.37 81.0361 1298.33 82.0421Z" fill="#D3CBCF"/>
<path d="M1299.06 80.04C1303.83 67.9393 1318.31 62.9243 1329.81 68.4535C1329.69 67.8452 1329.56 67.237 1329.46 66.6366C1327.31 68.698 1325.38 70.9762 1323.22 73.0222C1321.18 74.969 1318.83 77.0137 1315.92 77.34C1314.54 77.4998 1314.94 79.5939 1316.32 79.4572C1322.51 78.7686 1326.77 72.2081 1330.9 68.2456C1331.53 67.6347 1331.28 66.7796 1330.55 66.4287C1317.96 60.3846 1302.23 66.2599 1297.06 79.3575C1296.53 80.6456 1298.56 81.336 1299.06 80.04Z" fill="#D3CBCF"/>
<path d="M1302.94 48.4808C1301.45 47.3328 1299.59 47.0203 1297.79 46.6545C1297.54 46.6066 1297.19 46.758 1297 46.9259C1296.81 47.0938 1296.65 47.3848 1296.64 47.6539C1296.63 47.946 1296.7 48.2386 1296.91 48.44C1297.12 48.6643 1297.35 48.7428 1297.64 48.7909C1297.58 48.7828 1297.34 48.7274 1297.64 48.7909C1297.7 48.799 1297.77 48.8226 1297.83 48.8307C1297.94 48.8545 1298.06 48.8707 1298.17 48.8945C1298.39 48.9421 1298.62 48.9821 1298.84 49.0451C1299.23 49.14 1299.63 49.2349 1300.01 49.3529C1300.19 49.4002 1300.36 49.4706 1300.53 49.5409C1300.6 49.5799 1300.7 49.6112 1300.77 49.6502C1300.82 49.6659 1300.87 49.6816 1300.9 49.7049C1301.07 49.7906 1300.64 49.5801 1300.82 49.6659C1301.16 49.845 1301.46 50.0393 1301.76 50.2566C1302.2 50.5979 1302.98 50.4264 1303.27 49.9439C1303.56 49.4384 1303.42 48.8377 1302.94 48.4808Z" fill="#D3CBCF"/>
<path d="M1293.07 66.9591C1292.05 66.7523 1291.07 66.3689 1290.13 65.9319C1290.07 65.9008 1290.03 65.8851 1289.97 65.854C1290.1 65.9241 1290.05 65.893 1289.95 65.8462C1289.83 65.7915 1289.72 65.7293 1289.6 65.6746C1289.37 65.5577 1289.13 65.4254 1288.92 65.3009C1288.44 65.0363 1287.96 64.7562 1287.47 64.4762C1286.99 64.1961 1286.29 64.2528 1285.97 64.7889C1285.68 65.2559 1285.74 65.9714 1286.27 66.2826C1288.2 67.3874 1290.17 68.5464 1292.37 68.9996C1292.67 69.0632 1292.91 69.0802 1293.19 68.9437C1293.43 68.8299 1293.67 68.5778 1293.74 68.3323C1293.88 67.8257 1293.65 67.0784 1293.07 66.9591Z" fill="#D3CBCF"/>
<path d="M1277.13 87.1039C1276.91 87.0948 1276.7 87.0856 1276.48 87.0765C1276.38 87.0681 1276.28 87.0597 1276.17 87.0359C1276.11 87.0278 1276.06 87.0121 1276 87.004C1275.96 87.0038 1275.79 86.9564 1275.98 86.9962C1276.17 87.0359 1275.99 86.9886 1275.96 86.9883C1275.89 86.9802 1275.85 86.9645 1275.79 86.9564C1275.68 86.9326 1275.56 86.8934 1275.46 86.8696C1275.25 86.8144 1275.06 86.7362 1274.87 86.658C1274.77 86.6112 1274.68 86.5799 1274.58 86.533C1274.43 86.4551 1274.58 86.533 1274.65 86.5566C1274.59 86.5255 1274.55 86.5098 1274.49 86.4787C1274.31 86.3775 1274.12 86.2608 1273.93 86.1442C1273.74 86.0276 1273.55 85.8879 1273.38 85.7637C1273.28 85.6785 1273.18 85.6086 1273.09 85.5234C1273.02 85.4614 1272.91 85.3223 1273.09 85.5388C1273.05 85.4847 1272.99 85.4536 1272.95 85.3994C1272.73 85.1981 1272.51 85.0582 1272.22 85.0485C1271.96 85.0237 1271.62 85.129 1271.43 85.3199C1271.05 85.6941 1270.89 86.4235 1271.32 86.8416C1272.15 87.6007 1273.06 88.2297 1274.1 88.675C1275 89.0578 1275.98 89.249 1276.95 89.2555C1277.51 89.267 1278.09 88.8711 1278.12 88.2639C1278.13 87.7028 1277.73 87.1157 1277.13 87.1039Z" fill="#D3CBCF"/>
<path d="M1285.83 52.3709C1284.14 51.6674 1282.39 50.9559 1280.51 50.9355C1279.94 50.924 1279.37 51.3199 1279.33 51.9271C1279.31 52.4728 1279.72 53.0753 1280.32 53.0871C1280.76 53.0824 1281.2 53.1391 1281.64 53.2113C1281.67 53.2116 1281.72 53.2273 1281.77 53.2429C1281.48 53.2103 1281.66 53.2192 1281.72 53.2273C1281.83 53.2511 1281.94 53.2749 1282.04 53.2987C1282.26 53.3462 1282.47 53.4169 1282.67 53.472C1283.51 53.7314 1284.31 54.0675 1285.11 54.4035C1285.62 54.63 1286.33 54.2657 1286.47 53.7362C1286.67 53.1454 1286.39 52.613 1285.83 52.3709Z" fill="#D3CBCF"/>
<path d="M1274.85 68.9275C1273.25 68.6014 1271.72 67.9144 1270.22 67.2737C1269.69 67.0549 1268.99 67.4116 1268.85 67.9411C1268.67 68.5242 1268.95 69.0721 1269.51 69.2988C1271.01 69.9241 1272.54 70.611 1274.15 70.9526C1274.45 71.0161 1274.69 71.0331 1274.97 70.8966C1275.2 70.7828 1275.44 70.5308 1275.51 70.2852C1275.6 70.0166 1275.6 69.7091 1275.46 69.4698C1275.35 69.2384 1275.13 68.9832 1274.85 68.9275Z" fill="#D3CBCF"/>
<path d="M1278.2 38.0638C1275.36 37.4833 1272.59 36.5803 1269.74 35.9998C1269.19 35.8884 1268.54 36.0685 1268.37 36.6671C1268.21 37.1658 1268.44 37.9132 1269.04 38.0248C1271.88 38.6054 1274.65 39.5083 1277.49 40.0889C1278.05 40.2003 1278.69 40.0201 1278.86 39.4215C1279.01 38.9304 1278.78 38.1831 1278.2 38.0638Z" fill="#D3CBCF"/>
<path d="M1266.95 54.5652C1265.46 54.2783 1263.93 54.2987 1262.44 54.0118C1262.19 53.964 1261.84 54.1154 1261.65 54.2833C1261.46 54.4511 1261.3 54.7422 1261.29 55.0113C1261.28 55.3034 1261.35 55.596 1261.56 55.7973C1261.77 56.0217 1262 56.1002 1262.29 56.1483C1263.78 56.4352 1265.31 56.4148 1266.8 56.7016C1267.05 56.7495 1267.4 56.5981 1267.59 56.4302C1267.78 56.2623 1267.94 55.9713 1267.95 55.7022C1267.96 55.4101 1267.89 55.1175 1267.68 54.9161C1267.46 54.6993 1267.24 54.6133 1266.95 54.5652Z" fill="#D3CBCF"/>
<path d="M1258.48 77.0052C1256.58 75.9082 1254.58 74.972 1252.77 73.7142C1252.31 73.3881 1251.57 73.5369 1251.27 74.027C1250.96 74.54 1251.06 75.1789 1251.57 75.5207C1253.4 76.7709 1255.38 77.7147 1257.28 78.8117C1257.76 79.0917 1258.47 79.035 1258.78 78.4989C1259.05 78.024 1258.99 77.3086 1258.48 77.0052Z" fill="#D3CBCF"/>
<path d="M1258.03 44.2475C1256.09 43.8576 1254.25 43.1301 1252.3 42.7248C1252 42.6612 1251.76 42.6442 1251.48 42.7807C1251.25 42.8945 1251.01 43.1466 1250.93 43.3921C1250.77 43.8908 1251 44.6382 1251.6 44.7498C1253.54 45.1397 1255.38 45.8672 1257.33 46.2726C1257.63 46.3361 1257.87 46.3531 1258.15 46.2166C1258.38 46.1029 1258.62 45.8508 1258.69 45.6052C1258.84 45.1141 1258.61 44.3667 1258.03 44.2475Z" fill="#D3CBCF"/>
<path d="M1251.69 62.4426C1249.85 61.6613 1248 60.9183 1246.11 60.2366C1245.58 60.0562 1244.89 60.3514 1244.74 60.9039C1244.57 61.4641 1244.84 62.0579 1245.4 62.2617C1247.29 62.928 1249.14 63.6863 1250.98 64.4677C1251.51 64.6866 1252.2 64.3299 1252.35 63.8003C1252.53 63.2172 1252.24 62.6694 1251.69 62.4426Z" fill="#D3CBCF"/>
<path d="M1240.23 45.9343C1238.59 45.2466 1236.97 44.5667 1235.34 43.8713C1234.81 43.6524 1234.12 44.0091 1233.97 44.5387C1233.79 45.1218 1234.08 45.6697 1234.63 45.8964C1236.26 46.5917 1237.9 47.264 1239.53 47.9594C1240.06 48.1783 1240.75 47.8216 1240.9 47.292C1241.08 46.7243 1240.8 46.1765 1240.23 45.9343Z" fill="#D3CBCF"/>
<path d="M1246.1 35.4401C1245.65 35.4448 1245.22 35.388 1244.78 35.3159C1244.74 35.3156 1244.7 35.2999 1244.65 35.2842C1244.94 35.3169 1244.76 35.308 1244.7 35.2999C1244.59 35.2761 1244.48 35.2523 1244.37 35.2285C1244.16 35.1809 1243.95 35.1103 1243.75 35.0551C1242.91 34.7957 1242.11 34.4597 1241.31 34.1237C1240.78 33.9048 1240.09 34.2615 1239.94 34.791C1239.77 35.3741 1240.05 35.922 1240.61 36.1487C1242.3 36.8522 1244.05 37.5637 1245.93 37.5841C1246.49 37.5956 1247.07 37.1997 1247.1 36.5925C1247.1 36.0389 1246.69 35.4364 1246.1 35.4401Z" fill="#D3CBCF"/>
<path d="M1239.38 61.7208C1238.8 61.6015 1238.23 61.4208 1237.7 61.1481C1237.77 61.187 1237.86 61.2184 1237.95 61.2728C1237.29 60.9454 1236.68 60.5184 1236.1 60.0531C1235.91 59.8981 1235.56 59.8419 1235.31 59.8863C1235.05 59.9384 1234.75 60.1209 1234.61 60.3429C1234.47 60.5803 1234.38 60.8565 1234.43 61.1337C1234.5 61.4263 1234.66 61.635 1234.89 61.8287C1236.01 62.7129 1237.25 63.444 1238.67 63.7304C1238.97 63.7939 1239.21 63.8109 1239.49 63.6744C1239.72 63.5607 1239.96 63.3086 1240.03 63.063C1240.12 62.7945 1240.12 62.487 1239.98 62.2477C1239.88 62.0317 1239.66 61.7765 1239.38 61.7208Z" fill="#D3CBCF"/>
<path d="M1264.77 91.3337C1262.93 90.5523 1261.17 89.5563 1259.19 89.1277C1258.89 89.0641 1258.65 89.0471 1258.37 89.1836C1258.14 89.2974 1257.89 89.5495 1257.82 89.795C1257.66 90.2937 1257.89 91.0411 1258.48 91.1527C1260.47 91.5583 1262.22 92.5774 1264.06 93.3588C1264.58 93.5852 1265.28 93.221 1265.43 92.6914C1265.62 92.1007 1265.33 91.5758 1264.77 91.3337Z" fill="#D3CBCF"/>
<path d="M1292.82 35.787C1291.53 35.0402 1290.1 34.4614 1288.62 34.1516C1288.32 34.088 1288.08 34.071 1287.8 34.2075C1287.56 34.3213 1287.32 34.5734 1287.25 34.8189C1287.17 35.0875 1287.16 35.395 1287.3 35.6343C1287.43 35.8581 1287.65 36.1133 1287.91 36.1766C1289.07 36.4151 1290.17 36.8301 1291.22 37.3523C1291.14 37.3134 1291.05 37.282 1290.96 37.2276C1291.19 37.3291 1291.39 37.4381 1291.61 37.5626C1291.85 37.7103 1292.12 37.7736 1292.4 37.7294C1292.67 37.6774 1292.96 37.4949 1293.1 37.2729C1293.4 36.8058 1293.34 36.0903 1292.82 35.787Z" fill="#D3CBCF"/>
<path d="M1299.89 80.4376C1303.23 81.5058 1306.6 82.5128 1309.83 83.8802C1310.36 84.0991 1311.03 83.7346 1311.2 83.2129C1311.4 82.6376 1311.07 82.0741 1310.54 81.8552C1307.3 80.4954 1303.94 79.4962 1300.59 78.4201C1300.04 78.2472 1299.41 78.5351 1299.22 79.0874C1299.04 79.6321 1299.33 80.2723 1299.89 80.4376Z" fill="#D3CBCF"/>
</g>
</svg>
