<svg width="1920" height="450" viewBox="0 0 1920 450" fill="none" xmlns="http://www.w3.org/2000/svg">
<mask id="mask0_308_1302" style="mask-type:alpha" maskUnits="userSpaceOnUse" x="0" y="0" width="1920" height="450">
<rect width="1920" height="450" fill="#E3F1E9"/>
</mask>
<g mask="url(#mask0_308_1302)">
<path d="M1424.8 69.6598C1419.62 67.8775 1413.2 64.7035 1413.14 58.3548C1413.11 54.0466 1415.58 50.0731 1416.77 46.031C1419.05 38.2547 1416.1 29.738 1411.13 23.6632C1406.03 17.4205 1398.56 13.0131 1390.59 11.6874C1386.67 11.0302 1382.62 11.1435 1378.79 12.1653C1374.93 13.1876 1371.24 15.096 1367.84 17.1442C1360.25 21.7187 1353.52 27.846 1348.08 34.8311C1342.74 41.6959 1338.42 49.6699 1336.82 58.2928C1336.08 62.2735 1335.91 66.4395 1336.63 70.4446C1337.49 75.2582 1339.86 79.6953 1342.96 83.4285C1349.32 91.0624 1358.81 96.1641 1368.42 98.3604C1378 100.534 1387.86 98.0458 1394.81 90.9811C1398.44 87.2912 1400.86 82.7561 1403.21 78.1998C1404.41 75.8937 1405.82 73.4319 1408.44 72.5821C1411.02 71.7413 1413.67 72.5639 1416.06 73.5906C1418.11 74.4871 1420.06 75.6059 1422.12 76.4867C1422.48 76.6472 1422.83 76.5344 1423.05 76.1988C1424.04 74.6577 1425.23 73.267 1425.85 71.5111C1426.13 70.673 1424.79 70.3639 1424.5 71.2021C1423.94 72.8154 1422.75 74.136 1421.84 75.5571C1422.15 75.461 1422.46 75.3653 1422.77 75.2692C1418.94 73.6315 1415.16 70.8507 1410.83 70.8637C1405.44 70.8868 1403.22 75.173 1401.06 79.4103C1398.75 83.9182 1395.99 88.253 1392.13 91.6061C1388.44 94.8049 1383.88 96.9056 1379.04 97.5369C1369.13 98.8381 1358.53 94.5853 1350.67 88.7513C1346.65 85.7667 1343.09 82.0792 1340.68 77.6748C1338.42 73.5548 1337.47 69.0335 1337.56 64.3458C1337.73 55.7375 1341.2 47.4542 1345.83 40.3225C1350.69 32.8552 1357.07 26.2857 1364.31 21.1123C1370.79 16.4871 1378.28 12.4474 1386.44 12.6642C1394.57 12.8821 1402.5 16.6807 1408.17 22.4437C1413.67 28.048 1417.52 36.4813 1415.72 44.4453C1414.81 48.5177 1412.54 52.1955 1411.89 56.3457C1411.19 60.8728 1413.34 64.9414 1417.04 67.5216C1419.3 69.0921 1421.86 70.1209 1424.45 71.0004C1425.33 71.3007 1425.63 69.9459 1424.8 69.6598Z" fill="#7EB693"/>
<path d="M1420.02 70.1402C1417.09 68.8104 1414.03 67.727 1411.21 66.1351C1409.85 65.3654 1408.55 64.4525 1407.44 63.3306C1406.19 62.0563 1405.36 60.4874 1404.52 58.9265C1401.9 53.9812 1400.51 48.4728 1397.57 43.6942C1392.07 34.7894 1381.77 29.2599 1371.49 28.2973C1365.75 27.7608 1359.94 28.6966 1354.77 31.286C1353.97 31.6869 1354.7 32.8601 1355.49 32.4673C1364.85 27.7972 1376.23 28.9987 1385.19 33.9843C1389.96 36.64 1394.09 40.4109 1396.83 45.1567C1399.57 49.8793 1400.93 55.2399 1403.55 60.029C1405.16 62.9809 1407.04 65.2358 1409.94 67.0046C1412.91 68.8027 1416.22 69.9406 1419.37 71.3653C1420.18 71.7306 1420.84 70.513 1420.02 70.1402Z" fill="#7EB693"/>
<path d="M1404.36 66.1422C1388.45 63.6773 1371.49 63.4203 1356.86 55.9562C1352.62 53.7921 1348.76 51.0138 1345.44 47.6C1344.83 46.9627 1343.88 47.9704 1344.5 48.6078C1356.47 60.9114 1374.16 63.6794 1390.43 65.7024C1394.98 66.2692 1399.53 66.7811 1404.06 67.4814C1404.92 67.6259 1405.23 66.2787 1404.36 66.1422Z" fill="#7EB693"/>
<path d="M1396.43 57.5967C1386.55 45.2969 1370.49 38.9185 1355.06 37.7053C1354.18 37.6319 1354.23 39.0146 1355.11 39.0804C1369.99 40.2485 1385.71 46.4418 1395.25 58.307C1395.8 59.0013 1396.98 58.291 1396.43 57.5967Z" fill="#7EB693"/>
<path d="M1382.87 54.5722C1376.47 53.6816 1370.47 50.8928 1365.09 47.3886C1364.35 46.9039 1363.7 48.129 1364.44 48.6137C1369.91 52.1699 1376.05 55.0167 1382.57 55.9194C1383.44 56.0402 1383.76 54.6925 1382.87 54.5722Z" fill="#7EB693"/>
<path d="M1399.22 71.7729C1392.36 73.8062 1385.29 75.4704 1378.09 75.2776C1370.38 75.0619 1363.28 72.4572 1356.47 68.9827C1351.73 66.5608 1346.9 63.6647 1344.07 59.0076C1343.61 58.2403 1342.43 58.9662 1342.89 59.7335C1345.35 63.7689 1349.24 66.5775 1353.29 68.865C1357.07 70.9815 1361.03 72.8964 1365.13 74.2907C1372.07 76.666 1379.36 77.1844 1386.61 76.1322C1391.02 75.4832 1395.35 74.3834 1399.62 73.1133C1400.47 72.8516 1400.07 71.5267 1399.22 71.7729Z" fill="#7EB693"/>
<path d="M1396.99 77.2484C1392.02 82.8033 1385.49 86.7576 1378.13 88.0951C1369.75 89.6056 1361.25 87.6788 1354.43 82.5938C1350.31 79.5184 1346.81 75.712 1343.08 72.1942C1342.43 71.5891 1341.48 72.5893 1342.13 73.202C1349.07 79.7458 1355.63 87.1933 1365.4 89.2359C1372.9 90.8034 1380.75 89.8336 1387.59 86.3466C1391.55 84.3279 1395.05 81.5024 1398.01 78.2015C1398.6 77.5258 1397.59 76.5803 1396.99 77.2484Z" fill="#7EB693"/>
<path d="M1375.2 81.3843C1370.3 81.517 1365.37 80.4541 1361.48 77.3325C1360.79 76.7757 1359.84 77.7835 1360.53 78.3402C1364.71 81.7029 1369.95 82.9202 1375.23 82.7675C1376.13 82.7467 1376.09 81.3559 1375.2 81.3843Z" fill="#7EB693"/>
<path d="M1387.6 69.7816C1381.63 69.6982 1375.75 68.6107 1369.96 67.2389C1369.1 67.0319 1368.79 68.3792 1369.65 68.5862C1375.55 69.9857 1381.56 71.0848 1387.63 71.1648C1388.53 71.1752 1388.49 69.8001 1387.6 69.7816Z" fill="#7EB693"/>
<path d="M1357.23 62.7565C1354.17 61.3526 1351.14 59.9708 1348.87 57.3997C1348.28 56.7382 1347.33 57.7459 1347.93 58.4075C1350.28 61.0698 1353.43 62.5257 1356.59 63.9812C1357.39 64.3469 1358.05 63.1293 1357.23 62.7565Z" fill="#7EB693"/>
<path d="M1355.42 46.9146C1352.55 45.7078 1349.83 44.2147 1346.96 43.016C1346.14 42.6744 1345.49 43.8995 1346.31 44.2411C1349.18 45.4479 1351.9 46.941 1354.77 48.1397C1355.6 48.4732 1356.25 47.2637 1355.42 46.9146Z" fill="#7EB693"/>
<path d="M1409.89 52.6395C1408.31 46.1204 1407.19 39.2269 1402.99 33.7689C1398.57 28.0285 1392.01 23.866 1385 22.1419C1380.92 21.1378 1376.69 20.9128 1372.52 21.257C1371.63 21.3323 1371.67 22.7074 1372.56 22.6321C1381.99 21.8544 1390.87 24.3792 1398.07 30.602C1401.33 33.423 1403.81 36.8556 1405.33 40.8972C1406.81 44.8153 1407.57 48.9751 1408.57 53.0336C1408.78 53.9027 1410.1 53.501 1409.89 52.6395Z" fill="#7EB693"/>
<path d="M1410.3 34.2087C1408.5 31.0047 1406.71 27.7458 1404.28 24.961C1401.79 22.1151 1398.66 20.1032 1395.06 18.9904C1394.21 18.728 1393.9 20.0752 1394.75 20.3376C1398.24 21.4227 1401.19 23.4481 1403.56 26.243C1405.79 28.87 1407.43 31.9459 1409.12 34.9346C1409.55 35.7105 1410.73 34.9927 1410.3 34.2087Z" fill="#7EB693"/>
<path d="M681.965 178.819C685.437 168.021 685.123 154.707 681.269 144.059C678.609 136.73 672.524 127.184 663.3 129.228C655.222 131.03 651.86 140.734 651.988 148.082C652.143 156.335 654.517 165.073 658.796 172.165C660.903 175.66 663.749 179.091 667.533 180.886C671.504 182.777 675.694 182.397 679.611 180.562C681.742 179.568 679.812 176.479 677.701 177.452C663.655 183.995 656.794 160.861 655.812 151.193C655.185 144.973 656.085 136.872 662.259 133.483C669.284 129.614 675.287 138.484 677.353 143.978C681.308 154.519 681.872 167.269 678.42 178.047C677.706 180.252 681.253 181.066 681.965 178.819Z" fill="#7EB693"/>
<path d="M679.189 178.086C674.737 170.752 672.68 162.272 670.385 154.087C669.758 151.821 666.25 152.88 666.896 155.125C669.283 163.595 671.493 172.38 676.097 179.976C677.292 181.977 680.425 180.085 679.189 178.086Z" fill="#7EB693"/>
<path d="M654.468 187.748C648.864 183.725 643.142 179.871 637.184 176.354C630.385 172.329 622.793 167.917 614.868 166.707C612.074 166.281 608.964 166.277 606.567 167.981C603.928 169.857 603.208 173.174 603.284 176.24C603.393 181.056 604.787 186.119 607.749 189.937C611.14 194.318 615.989 197.273 621.133 199.107C632.149 203.019 647.511 202.344 654.358 191.479C655.614 189.503 652.369 187.815 651.133 189.769C645.798 198.259 633.581 198.772 624.881 196.475C620.084 195.207 615.399 192.885 611.95 189.288C608.842 186.051 607.392 181.814 606.986 177.399C606.858 175.962 606.811 174.439 607.241 173.046C607.502 172.173 608.033 171.394 608.537 171.028C610.126 169.844 612.519 169.974 614.694 170.378C621.756 171.657 628.425 175.48 634.549 179.033C638.157 181.142 641.687 183.377 645.157 185.676C646.503 186.581 647.849 187.485 649.197 188.43C649.766 188.845 650.333 189.218 650.902 189.632C651.408 189.987 651.787 190.263 651.977 190.401C653.872 191.741 656.384 189.108 654.468 187.748Z" fill="#7EB693"/>
<path d="M651.658 189.424C643.811 188.088 636.37 185.216 628.803 182.945C626.558 182.275 625.742 185.822 627.987 186.492C635.554 188.763 642.996 191.636 650.842 192.971C653.141 193.372 653.976 189.803 651.658 189.424Z" fill="#7EB693"/>
<path d="M639.972 150.894C638.483 141.468 636.572 131.088 630.402 123.459C626.632 118.802 621.028 114.1 614.979 112.975C612.39 112.501 609.682 112.835 607.681 114.669C605.379 116.782 604.781 120.054 604.627 123.025C604.252 130.78 609.166 137.79 614.776 142.656C620.915 147.98 628.934 152.193 637.168 152.775C639.5 152.927 639.366 149.286 637.055 149.154C631.05 148.748 625.088 145.787 620.244 142.359C615 138.634 610.101 133.435 608.602 126.996C607.652 122.949 608.083 115.686 613.812 116.472C618.816 117.136 623.514 121.146 626.778 124.769C633.03 131.757 634.917 142.035 636.33 150.989C636.69 153.284 640.332 153.189 639.972 150.894Z" fill="#7EB693"/>
<path d="M637.779 148.122C632.815 143.461 628.391 138.31 623.426 133.649C621.729 132.056 619.216 134.69 620.935 136.303C625.899 140.963 630.324 146.115 635.288 150.776C637.007 152.389 639.498 149.735 637.779 148.122Z" fill="#7EB693"/>
<path d="M1227.8 203.735C1249.32 223.085 1283.97 238.01 1312.35 225.58C1313.12 225.245 1313.33 224.277 1313.03 223.538C1309.71 215.687 1302.46 209.697 1295.92 204.537C1288.12 198.361 1280.09 193.359 1270.61 190.15C1261.87 187.188 1253.54 186.363 1244.4 187.797C1239.83 188.504 1235.31 189.611 1230.85 190.806C1228.86 191.349 1226.85 191.907 1224.86 192.484C1223.46 192.888 1221.7 193.03 1220.6 194.017C1219.95 194.6 1219.98 195.513 1220.48 196.142C1222.63 198.978 1225.4 201.16 1227.8 203.735C1229.13 205.15 1231.41 203.145 1230.06 201.712C1227.66 199.137 1224.89 196.955 1222.74 194.154C1222.7 194.873 1222.66 195.593 1222.62 196.279C1223.36 195.615 1226.03 195.317 1227.14 195.001C1229.01 194.469 1230.9 193.955 1232.76 193.457C1236.79 192.392 1240.87 191.416 1244.99 190.786C1253.8 189.42 1261.74 190.326 1270.16 193.219C1278.95 196.235 1286.34 200.892 1293.61 206.574C1299.94 211.499 1307.1 217.312 1310.31 224.899C1310.53 224.207 1310.76 223.549 1310.99 222.857C1297.32 228.834 1281.85 227.629 1267.91 223.26C1254.02 218.912 1240.88 211.442 1230.04 201.694C1228.62 200.428 1226.34 202.433 1227.8 203.735Z" fill="#7EB693"/>
<path d="M1224.91 197.42C1240.54 199.855 1255.83 204.092 1270.76 209.272C1277.18 211.504 1283.68 213.412 1290.17 215.458C1296.94 217.606 1303.87 220.037 1309.48 224.561C1311 225.78 1312.65 223.225 1311.14 222.006C1305.72 217.665 1299.07 215.146 1292.55 213.03C1285.61 210.77 1278.62 208.782 1271.72 206.387C1256.53 201.123 1241.02 196.89 1225.12 194.406C1223.15 194.108 1223.01 197.142 1224.91 197.42Z" fill="#7EB693"/>
<path d="M1301.49 222.139C1284.93 220.34 1268 218.813 1252.57 212.024C1250.79 211.238 1249.86 214.125 1251.64 214.912C1267.28 221.799 1284.5 223.359 1301.3 225.171C1303.25 225.383 1303.41 222.367 1301.49 222.139Z" fill="#7EB693"/>
<path d="M1282.27 203.364C1273.52 199.37 1264.21 197.632 1254.79 196.059C1252.87 195.728 1252.72 198.762 1254.63 199.075C1263.83 200.618 1272.84 202.358 1281.36 206.235C1283.12 207.072 1284.03 204.167 1282.27 203.364Z" fill="#7EB693"/>
<path d="M1249.74 206.417C1246 204.714 1242.45 202.574 1238.56 201.205C1237.78 200.922 1236.9 201.422 1236.65 202.199C1236.38 202.992 1236.85 203.843 1237.64 204.111C1241.54 205.48 1245.08 207.619 1248.82 209.323C1249.58 209.657 1250.5 209.056 1250.73 208.329C1250.98 207.484 1250.47 206.768 1249.74 206.417Z" fill="#7EB693"/>
<path d="M1211.05 169.197C1239.08 176.791 1276.57 174.357 1296.34 150.465C1296.91 149.792 1296.45 148.838 1295.89 148.36C1289.29 142.767 1279.88 140.696 1271.63 139.051C1262.52 137.237 1253.77 136.372 1244.49 137.54C1235.18 138.706 1227.15 141.491 1219.43 146.871C1215.46 149.641 1211.77 152.787 1208.15 156.023C1206.54 157.463 1204.93 158.938 1203.34 160.396C1202.21 161.434 1200.7 162.364 1200.14 163.811C1199.92 164.366 1200.18 165.274 1200.77 165.565C1204.06 167.209 1207.61 167.94 1211.05 169.197C1212.89 169.867 1213.82 166.979 1211.98 166.31C1208.82 165.136 1205.45 164.502 1202.4 163.026C1202.61 163.622 1202.82 164.184 1203.03 164.78C1203.39 163.871 1205.81 162.253 1206.7 161.46C1208.2 160.083 1209.7 158.705 1211.24 157.364C1214.51 154.469 1217.86 151.665 1221.45 149.166C1228.83 144.025 1236.69 141.557 1245.56 140.487C1254.42 139.434 1262.83 140.383 1271.51 142.156C1279.28 143.74 1288.04 145.706 1294.23 150.95C1294.08 150.237 1293.93 149.558 1293.78 148.845C1284.26 160.33 1269.86 166.18 1255.45 168.558C1241.09 170.921 1226.02 170.134 1212 166.328C1210.1 165.81 1209.17 168.697 1211.05 169.197Z" fill="#7EB693"/>
<path d="M1205.25 164.938C1220.76 159.923 1236.73 156.738 1252.87 154.612C1259.52 153.744 1266.08 152.46 1272.69 151.401C1279.33 150.344 1286.29 149.459 1292.93 150.878C1294.82 151.275 1295.77 148.406 1293.87 147.99C1280.82 145.201 1267.39 149.696 1254.47 151.349C1237.6 153.486 1220.85 156.714 1204.64 161.965C1202.81 162.568 1203.41 165.541 1205.25 164.938Z" fill="#7EB693"/>
<path d="M1284.96 152.41C1269.51 158.22 1253.8 164.496 1237.15 165.39C1235.22 165.489 1235.03 168.521 1236.98 168.407C1254.2 167.492 1270.33 161.136 1286.32 155.133C1288.15 154.444 1286.77 151.737 1284.96 152.41Z" fill="#7EB693"/>
<path d="M1259.73 144.267C1250.1 144.642 1241.03 147.214 1231.89 150.057C1230.03 150.641 1230.64 153.615 1232.5 153.03C1241.36 150.275 1250.21 147.673 1259.56 147.283C1261.51 147.202 1261.67 144.186 1259.73 144.267Z" fill="#7EB693"/>
<path d="M1232.07 161.652C1227.84 161.829 1223.59 161.524 1219.36 162.079C1218.59 162.191 1218 163.103 1218.17 163.869C1218.38 164.723 1219.13 165.16 1219.96 165.069C1221 164.92 1221.79 164.861 1222.76 164.812C1223.79 164.766 1224.82 164.755 1225.85 164.744C1227.86 164.736 1229.86 164.778 1231.87 164.701C1232.66 164.676 1233.47 164.154 1233.46 163.277C1233.52 162.507 1232.93 161.632 1232.07 161.652Z" fill="#7EB693"/>
<path d="M447.797 104.901C445.827 112.313 435.629 114.776 429.022 114.955C425.607 115.049 421.682 114.708 418.802 112.708C417.712 111.957 416.848 110.912 416.526 109.604C416.161 108.089 416.47 105.82 417.504 104.636C418.741 103.224 420.89 104.541 422.159 105.248C423.855 106.188 425.519 107.328 427.379 107.904C431.214 109.085 435.805 106.514 436.782 102.599C437.74 98.7356 434.837 94.8979 431.172 93.9189C427.192 92.8505 422.769 93.8604 418.824 94.6524C415.022 95.4173 410.293 97.0591 406.484 95.6664C403.69 94.6341 401.639 92.3166 400.406 89.6591C400.194 89.1932 399.101 87.264 399.526 86.7021C399.555 86.6738 400.549 86.845 400.823 86.911C404.323 87.8424 407.725 90.2435 411.463 90.0215C414.965 89.8141 418.29 86.8635 416.782 83.2587C415.24 79.5848 411.594 77.9707 408.079 76.8332C405.934 76.1399 403.28 75.338 402.224 73.1345C401.616 71.8516 401.305 68.2486 403.073 67.5184C404.909 66.7547 407.015 69.3017 408.936 69.094C412.389 68.7258 410.666 62.6234 409.378 61.0869C407.786 59.2152 405.329 58.2609 403.082 57.4178C400.471 56.439 397.79 55.4937 395.403 54.008C392.816 52.4057 391.051 50.12 390.366 47.1251C389.795 44.6294 390.206 42.0129 390.98 39.5893C391.696 37.3081 392.879 34.6715 395.049 33.4192C397.022 32.2908 398.899 32.8723 399.918 34.795C401.335 37.4488 401.573 42.3101 404.933 43.3945C406.485 43.8923 408.491 43.3308 409.577 42.1352C410.773 40.815 411.095 38.8957 411.356 37.2047C411.693 34.965 411.779 32.6483 412.464 30.4812C413.209 28.1431 415.02 26.7381 417.203 25.7492C421.615 23.7492 427.606 24.3247 429.427 29.4552C431.16 34.3445 427.358 38.3657 425.577 42.5866C423.759 46.8815 424.121 56.6314 431.072 54.0814C433.719 53.1091 436.061 51.3323 438.411 49.8074C440.628 48.3611 443.183 46.5237 445.89 46.2045C448.248 45.9272 450.324 48.0618 449.98 50.4616C449.604 53.0899 446.652 55.0489 444.676 56.4635C439.983 59.8511 432.118 63.5699 431.482 70.1212C431.068 74.3744 434.127 78.0936 437.964 79.5724C442.326 81.2516 447.729 79.7661 449.037 74.8933C449.649 72.6338 449.508 70.2 450.417 68.024C451.266 65.9903 453.455 64.0745 455.66 63.6581C459.094 62.9864 460.58 66.9859 460.804 69.7067C461.129 73.5732 459.63 77.1734 456.564 79.5432C454.24 81.3259 449.598 83.7927 450.465 87.3961C451.429 91.4356 455.688 90.733 458.767 90.5037C460.831 90.3548 462.328 91.0924 462.616 93.3275C462.872 95.2933 461.557 97.0127 460.189 98.2738C457.518 100.722 453.835 102.553 450.313 103.424C449.319 103.665 449.603 105.247 450.609 105.001C454.275 104.103 458.015 102.273 460.892 99.8096C463.59 97.5044 465.789 93.3511 462.946 90.1951C460.308 87.253 456.182 90.6068 453.278 88.732C448.93 85.9371 456.48 81.7455 458.321 80.1978C461.151 77.8426 462.503 74.1148 462.438 70.4916C462.389 67.5152 461.364 63.7612 458.396 62.4293C455.012 60.9155 450.806 63.8106 449.269 66.7466C448.161 68.8632 448.154 71.2553 447.719 73.5567C447.15 76.5492 445.097 78.5982 441.933 78.712C437.194 78.8657 432.097 74.6146 433.184 69.5791C433.894 66.3193 436.931 63.9492 439.474 62.0602C442.336 59.9457 445.463 58.1432 448.155 55.798C450.066 54.1309 452.013 51.8633 451.52 49.1452C451.08 46.6853 449.055 44.6256 446.494 44.603C443.734 44.5783 441.089 46.2602 438.838 47.6661C436.286 49.2746 433.834 51.1761 431.064 52.3931C428.795 53.381 427.109 53.0762 426.511 50.4657C426.038 48.406 426.014 46.1567 426.692 44.1498C427.453 41.8748 428.835 39.8813 429.904 37.7414C431.965 33.6265 432.205 28.5188 428.454 25.2497C425.087 22.3053 419.968 22.6437 416.153 24.4958C414.216 25.4358 412.35 26.783 411.409 28.7756C410.473 30.7511 410.262 33.0149 410.001 35.1467C409.772 37.0212 409.752 40.0026 408.144 41.3239C406.459 42.7246 404.597 41.8513 403.719 40.1591C402.264 37.3675 401.998 32.3915 398.373 31.4072C393.532 30.089 390.438 35.7147 389.332 39.4795C387.909 44.3225 388.22 49.7454 392.03 53.4557C393.943 55.3139 396.392 56.4855 398.837 57.5025C401.475 58.5961 404.439 59.3327 406.802 60.9726C407.978 61.7811 408.91 62.8787 409.184 64.3239C409.302 64.949 409.556 66.7029 409.067 67.2813C408.544 67.905 407.47 67.1893 406.849 66.9077C404.645 65.9162 402.037 65.0633 400.771 67.8535C399.9 69.7839 399.874 72.3131 400.923 74.1789C401.976 76.0848 403.997 77.1086 405.964 77.8456C408.034 78.6182 410.304 79.0095 412.115 80.3057C413.529 81.3113 415.154 82.8401 415.505 84.618C415.958 86.8721 413.305 88.3021 411.385 88.4526C409.452 88.6087 407.401 87.699 405.645 87.0157C404.14 86.4383 398.507 83.3716 397.901 86.5239C397.509 88.5626 399.268 91.3061 400.378 92.8578C401.825 94.8996 403.867 96.5246 406.269 97.3065C410.143 98.5682 414.698 97.1249 418.534 96.3431C422.565 95.5235 427.687 94.1036 431.67 95.7957C433.698 96.6594 435.321 98.8577 435.322 101.09C435.329 103.774 433.029 105.871 430.548 106.451C426.44 107.407 423.422 103.184 419.598 102.495C415.894 101.819 414.419 106.261 414.777 109.258C415.136 112.226 417.518 114.198 420.151 115.252C427.105 118.047 436.552 116.589 442.899 112.882C445.784 111.197 448.369 108.748 449.252 105.432C449.573 104.423 448.068 103.903 447.797 104.901Z" fill="#7EB693"/>
</g>
</svg>
