<svg width="1920" height="450" viewBox="0 0 1920 450" fill="none" xmlns="http://www.w3.org/2000/svg">
<mask id="mask0_308_1910" style="mask-type:alpha" maskUnits="userSpaceOnUse" x="0" y="0" width="1920" height="450">
<rect width="1920" height="450" fill="#E3F1E9"/>
</mask>
<g mask="url(#mask0_308_1910)">
<path d="M818.11 110.842C811.887 108.701 804.175 104.887 804.105 97.2582C804.065 92.0815 807.036 87.3068 808.463 82.4498C811.205 73.1058 807.662 62.8721 801.691 55.5725C795.565 48.0712 786.584 42.7753 777.005 41.1824C772.301 40.3926 767.437 40.5288 762.824 41.7565C758.192 42.9849 753.762 45.2781 749.667 47.7393C740.554 53.236 732.459 60.5986 725.927 68.992C719.513 77.2407 714.325 86.8224 712.394 97.1837C711.51 101.967 711.31 106.973 712.165 111.785C713.201 117.569 716.047 122.901 719.777 127.387C727.413 136.56 738.816 142.69 750.363 145.329C761.881 147.941 773.722 144.951 782.074 136.462C786.437 132.028 789.348 126.579 792.175 121.104C793.61 118.333 795.313 115.375 798.457 114.354C801.555 113.344 804.743 114.332 807.61 115.566C810.078 116.643 812.423 117.987 814.89 119.046C815.328 119.238 815.747 119.103 816.016 118.7C817.208 116.848 818.631 115.177 819.373 113.067C819.717 112.06 818.099 111.688 817.754 112.696C817.082 114.634 815.647 116.221 814.554 117.929C814.936 117.813 815.298 117.698 815.68 117.583C811.08 115.615 806.53 112.273 801.324 112.289C794.85 112.317 792.183 117.467 789.589 122.559C786.817 127.975 783.494 133.184 778.856 137.213C774.428 141.057 768.943 143.581 763.131 144.34C751.227 145.903 738.484 140.793 729.036 133.783C724.206 130.197 719.933 125.766 717.032 120.473C714.321 115.523 713.174 110.09 713.289 104.457C713.491 94.1133 717.662 84.1599 723.23 75.5905C729.067 66.6177 736.732 58.7238 745.427 52.5074C753.213 46.9496 762.214 42.0955 772.024 42.3561C781.796 42.6178 791.317 47.1823 798.131 54.1072C804.741 60.8413 809.363 70.9749 807.209 80.5444C806.113 85.4379 803.385 89.8571 802.601 94.844C801.757 100.284 804.344 105.173 808.792 108.273C811.501 110.16 814.584 111.396 817.69 112.453C818.754 112.814 819.117 111.186 818.11 110.842Z" fill="#D1D1D1"/>
<path d="M812.376 111.42C808.849 109.822 805.171 108.52 801.794 106.607C800.149 105.682 798.592 104.585 797.253 103.237C795.758 101.706 794.759 99.8208 793.751 97.9452C790.605 92.0029 788.932 85.3839 785.397 79.6419C778.794 68.9419 766.417 62.2976 754.061 61.1409C747.161 60.4962 740.186 61.6207 733.969 64.7321C733.006 65.2139 733.887 66.6236 734.84 66.1516C746.082 60.54 759.754 61.9838 770.523 67.9744C776.251 71.1655 781.214 75.6967 784.513 81.3993C787.801 87.074 789.44 93.5154 792.581 99.27C794.515 102.817 796.78 105.526 800.267 107.652C803.83 109.813 807.811 111.18 811.595 112.892C812.567 113.331 813.358 111.868 812.376 111.42Z" fill="#D1D1D1"/>
<path d="M793.553 106.616C774.44 103.654 754.056 103.345 736.485 94.376C731.385 91.7757 726.742 88.4372 722.76 84.3353C722.022 83.5694 720.885 84.7803 721.623 85.5462C736.013 100.33 757.261 103.656 776.818 106.087C782.281 106.768 787.75 107.383 793.19 108.225C794.229 108.399 794.601 106.78 793.553 106.616Z" fill="#D1D1D1"/>
<path d="M784.032 96.3469C772.151 81.5674 752.863 73.903 734.323 72.4453C733.259 72.357 733.32 74.0184 734.375 74.0976C752.255 75.5011 771.151 82.9431 782.611 97.2004C783.267 98.0347 784.687 97.1812 784.032 96.3469Z" fill="#D1D1D1"/>
<path d="M767.737 92.7126C760.036 91.6424 752.836 88.2915 746.37 84.0807C745.478 83.4983 744.697 84.9704 745.589 85.5528C752.16 89.826 759.531 93.2467 767.365 94.3315C768.413 94.4766 768.804 92.8572 767.737 92.7126Z" fill="#D1D1D1"/>
<path d="M787.386 113.381C779.136 115.824 770.647 117.824 761.994 117.592C752.73 117.333 744.193 114.203 736.018 110.028C730.317 107.118 724.513 103.638 721.114 98.0422C720.559 97.1202 719.139 97.9924 719.695 98.9145C722.647 103.764 727.329 107.138 732.198 109.887C736.732 112.43 741.493 114.731 746.423 116.407C754.763 119.261 763.522 119.884 772.232 118.619C777.536 117.839 782.729 116.518 787.859 114.992C788.883 114.677 788.41 113.085 787.386 113.381Z" fill="#D1D1D1"/>
<path d="M784.705 119.96C778.73 126.635 770.882 131.387 762.033 132.994C751.969 134.809 741.757 132.493 733.559 126.383C728.613 122.688 724.401 118.114 719.917 113.887C719.143 113.16 717.996 114.362 718.781 115.098C727.118 122.961 735 131.91 746.739 134.365C755.754 136.248 765.19 135.083 773.404 130.893C778.158 128.467 782.365 125.072 785.925 121.105C786.632 120.294 785.422 119.157 784.705 119.96Z" fill="#D1D1D1"/>
<path d="M758.512 124.93C752.624 125.09 746.702 123.813 742.026 120.062C741.197 119.393 740.061 120.604 740.89 121.273C745.912 125.313 752.207 126.776 758.554 126.592C759.634 126.567 759.582 124.896 758.512 124.93Z" fill="#D1D1D1"/>
<path d="M773.419 110.988C766.246 110.888 759.185 109.581 752.227 107.933C751.185 107.684 750.813 109.303 751.854 109.552C758.946 111.233 766.157 112.554 773.462 112.65C774.543 112.663 774.491 111.01 773.419 110.988Z" fill="#D1D1D1"/>
<path d="M736.92 102.547C733.24 100.86 729.608 99.1996 726.88 96.1102C726.169 95.3152 725.032 96.5262 725.743 97.3211C728.569 100.52 732.354 102.27 736.158 104.018C737.112 104.458 737.902 102.995 736.92 102.547Z" fill="#D1D1D1"/>
<path d="M734.754 83.5112C731.307 82.0611 728.037 80.267 724.581 78.8266C723.6 78.4161 722.819 79.8883 723.8 80.2987C727.247 81.7488 730.517 83.5429 733.974 84.9833C734.963 85.384 735.745 83.9307 734.754 83.5112Z" fill="#D1D1D1"/>
<path d="M800.207 90.3898C798.308 82.5564 796.959 74.2732 791.914 67.7147C786.604 60.817 778.714 55.8153 770.295 53.7437C765.399 52.5371 760.315 52.2668 755.301 52.6804C754.232 52.7708 754.284 54.4232 755.353 54.3327C766.685 53.3983 777.352 56.432 785.996 63.9094C789.918 67.2991 792.894 71.4237 794.729 76.2802C796.502 80.9882 797.419 85.9866 798.615 90.8634C798.873 91.9077 800.456 91.425 800.207 90.3898Z" fill="#D1D1D1"/>
<path d="M800.689 68.2437C798.529 64.3937 796.376 60.4778 793.453 57.1315C790.47 53.7119 786.71 51.2944 782.374 49.9572C781.359 49.6418 780.986 51.2607 782.002 51.576C786.206 52.8799 789.749 55.3136 792.589 58.672C795.272 61.8286 797.249 65.5246 799.269 69.1159C799.796 70.0482 801.207 69.1857 800.689 68.2437Z" fill="#D1D1D1"/>
<path d="M574.09 174.061C576.819 165.57 576.573 155.101 573.542 146.729C571.45 140.966 566.665 133.459 559.413 135.067C553.061 136.484 550.418 144.114 550.518 149.892C550.64 156.381 552.507 163.252 555.871 168.829C557.528 171.577 559.766 174.275 562.741 175.686C565.864 177.173 569.158 176.874 572.238 175.432C573.914 174.65 572.396 172.221 570.736 172.986C559.692 178.131 554.297 159.94 553.525 152.338C553.032 147.447 553.739 141.077 558.595 138.413C564.118 135.37 568.838 142.345 570.463 146.665C573.572 154.954 574.016 164.979 571.302 173.454C570.741 175.188 573.53 175.828 574.09 174.061Z" fill="#7DCAC9"/>
<path d="M571.9 173.484C568.4 167.718 566.783 161.05 564.978 154.614C564.485 152.832 561.726 153.665 562.235 155.43C564.111 162.09 565.85 168.998 569.469 174.971C570.409 176.544 572.872 175.057 571.9 173.484Z" fill="#7DCAC9"/>
<path d="M552.466 181.082C548.059 177.919 543.56 174.889 538.875 172.123C533.529 168.958 527.559 165.489 521.328 164.538C519.131 164.203 516.686 164.2 514.801 165.539C512.726 167.014 512.16 169.623 512.219 172.034C512.305 175.82 513.401 179.801 515.73 182.803C518.396 186.249 522.209 188.572 526.254 190.014C534.916 193.09 546.996 192.559 552.379 184.016C553.367 182.462 550.816 181.135 549.844 182.671C545.648 189.347 536.042 189.75 529.201 187.944C525.429 186.947 521.745 185.122 519.033 182.293C516.59 179.748 515.449 176.416 515.13 172.945C515.03 171.815 514.992 170.618 515.33 169.522C515.536 168.835 515.954 168.223 516.349 167.935C517.599 167.004 519.481 167.106 521.191 167.424C526.744 168.429 531.988 171.436 536.803 174.23C539.64 175.888 542.416 177.646 545.144 179.453C546.203 180.164 547.261 180.875 548.321 181.619C548.768 181.945 549.215 182.238 549.662 182.564C550.059 182.843 550.358 183.06 550.507 183.169C551.997 184.222 553.973 182.151 552.466 181.082Z" fill="#7DCAC9"/>
<path d="M550.256 182.399C544.086 181.349 538.234 179.091 532.284 177.305C530.519 176.778 529.878 179.568 531.643 180.094C537.593 181.88 543.444 184.139 549.614 185.189C551.421 185.504 552.078 182.698 550.256 182.399Z" fill="#7DCAC9"/>
<path d="M541.066 152.104C539.895 144.692 538.393 136.53 533.542 130.532C530.577 126.87 526.17 123.172 521.414 122.288C519.379 121.915 517.25 122.177 515.675 123.62C513.865 125.281 513.395 127.854 513.274 130.19C512.979 136.288 516.844 141.8 521.254 145.627C526.081 149.812 532.387 153.125 538.862 153.583C540.695 153.702 540.59 150.84 538.773 150.736C534.051 150.417 529.363 148.088 525.554 145.392C521.431 142.463 517.578 138.376 516.4 133.313C515.653 130.13 515.992 124.42 520.497 125.037C524.432 125.559 528.125 128.713 530.692 131.562C535.608 137.056 537.092 145.138 538.203 152.179C538.486 153.983 541.35 153.908 541.066 152.104Z" fill="#7DCAC9"/>
<path d="M539.345 149.924C535.441 146.259 531.962 142.209 528.059 138.544C526.724 137.291 524.748 139.362 526.1 140.63C530.004 144.295 533.482 148.346 537.386 152.01C538.737 153.279 540.696 151.192 539.345 149.924Z" fill="#7DCAC9"/>
<path d="M1271.37 337.265C1297.85 348.94 1335.43 352.314 1358.52 331.657C1359.15 331.097 1359.05 330.112 1358.53 329.505C1352.93 323.079 1344.17 319.648 1336.35 316.785C1327.01 313.351 1317.82 311.101 1307.81 311.009C1298.58 310.92 1290.41 312.733 1282.18 316.944C1278.05 319.044 1274.11 321.502 1270.24 324.031C1268.52 325.166 1266.78 326.323 1265.07 327.492C1263.87 328.311 1262.24 328.996 1261.5 330.278C1261.06 331.034 1261.38 331.89 1262.05 332.333C1264.98 334.358 1268.29 335.568 1271.37 337.265C1273.08 338.195 1274.61 335.58 1272.89 334.639C1269.8 332.942 1266.49 331.731 1263.58 329.739C1263.76 330.436 1263.95 331.132 1264.13 331.795C1264.63 330.933 1267.06 329.819 1268.03 329.171C1269.64 328.082 1271.27 327.007 1272.88 325.952C1276.38 323.683 1279.95 321.485 1283.67 319.6C1291.61 315.556 1299.44 313.94 1308.34 314.064C1317.64 314.189 1326.11 316.309 1334.79 319.441C1342.34 322.147 1350.95 325.438 1356.37 331.647C1356.37 330.918 1356.37 330.223 1356.38 329.494C1345.25 339.435 1330.18 343.115 1315.57 343.311C1301.02 343.51 1286.21 340.508 1272.87 334.627C1271.12 333.869 1269.58 336.483 1271.37 337.265Z" fill="#83C5C4"/>
<path d="M1266.66 332.165C1282.27 329.605 1298.12 328.864 1313.91 329.131C1320.72 329.248 1327.48 329.036 1334.29 328.957C1341.39 328.885 1348.74 329.034 1355.48 331.582C1357.3 332.268 1358.07 329.325 1356.25 328.639C1349.75 326.203 1342.65 325.884 1335.79 325.905C1328.5 325.922 1321.23 326.213 1313.93 326.088C1297.85 325.826 1281.79 326.641 1265.91 329.239C1263.96 329.567 1264.76 332.496 1266.66 332.165Z" fill="#83C5C4"/>
<path d="M1347.12 331.775C1330.83 335.229 1314.27 339.057 1297.5 337.416C1295.56 337.223 1295.57 340.258 1297.51 340.45C1314.52 342.117 1331.37 338.229 1347.89 334.713C1349.81 334.307 1349.03 331.389 1347.12 331.775Z" fill="#83C5C4"/>
<path d="M1323.01 319.927C1313.45 318.862 1304.07 320.112 1294.63 321.554C1292.7 321.84 1293.5 324.77 1295.41 324.472C1304.63 323.07 1313.74 321.912 1323.04 322.941C1324.97 323.188 1324.94 320.141 1323.01 319.927Z" fill="#83C5C4"/>
<path d="M1293.05 332.973C1288.97 332.52 1284.93 331.592 1280.81 331.506C1279.98 331.479 1279.3 332.231 1279.3 333.047C1279.29 333.883 1280.01 334.546 1280.84 334.553C1284.97 334.639 1289 335.567 1293.09 336.019C1293.91 336.102 1294.6 335.241 1294.59 334.479C1294.57 333.597 1293.86 333.076 1293.05 332.973Z" fill="#83C5C4"/>
<path d="M1244.69 309.672C1273.69 308.147 1308.55 294.147 1319.89 265.279C1320.22 264.462 1319.48 263.7 1318.8 263.42C1310.78 260.164 1301.2 261.13 1292.85 262.138C1283.63 263.257 1275.04 265.164 1266.59 269.166C1258.11 273.178 1251.35 278.326 1245.69 285.846C1242.78 289.715 1240.25 293.857 1237.82 298.06C1236.74 299.93 1235.67 301.833 1234.61 303.716C1233.87 305.052 1232.72 306.407 1232.64 307.957C1232.61 308.552 1233.14 309.335 1233.78 309.428C1237.43 309.963 1241.03 309.549 1244.69 309.672C1246.64 309.735 1246.63 306.701 1244.67 306.638C1241.3 306.511 1237.9 306.958 1234.55 306.506C1234.93 307.007 1235.3 307.476 1235.69 307.977C1235.75 307.002 1237.55 304.708 1238.14 303.678C1239.14 301.901 1240.14 300.124 1241.18 298.371C1243.38 294.6 1245.69 290.891 1248.33 287.397C1253.74 280.21 1260.43 275.416 1268.53 271.632C1276.62 267.868 1284.9 266.149 1293.71 265.125C1301.58 264.208 1310.52 263.345 1318.04 266.396C1317.67 265.765 1317.31 265.168 1316.95 264.537C1311.49 278.418 1299.63 288.467 1286.67 295.22C1273.77 301.944 1259.21 305.894 1244.7 306.65C1242.73 306.749 1242.75 309.783 1244.69 309.672Z" fill="#83C5C4"/>
<path d="M1237.85 307.433C1251.02 297.833 1265.2 289.827 1279.87 282.775C1285.92 279.877 1291.76 276.609 1297.71 273.543C1303.69 270.467 1310.02 267.457 1316.78 266.734C1318.69 266.523 1318.7 263.501 1316.76 263.699C1303.5 265.118 1292.14 273.576 1280.38 279.174C1265.01 286.467 1250.11 294.756 1236.35 304.799C1234.79 305.944 1236.29 308.579 1237.85 307.433Z" fill="#83C5C4"/>
<path d="M1309.68 270.676C1296.81 281.012 1283.84 291.875 1268.3 297.918C1266.49 298.614 1267.26 301.552 1269.08 300.835C1285.16 294.596 1298.5 283.528 1311.82 272.839C1313.34 271.615 1311.19 269.473 1309.68 270.676Z" fill="#83C5C4"/>
<path d="M1283.16 270.807C1274.13 274.166 1266.32 279.436 1258.52 284.989C1256.94 286.122 1258.45 288.757 1260.03 287.624C1267.59 282.241 1275.18 277.012 1283.95 273.725C1285.77 273.041 1284.99 270.123 1283.16 270.807Z" fill="#83C5C4"/>
<path d="M1262.31 295.948C1258.34 297.437 1254.21 298.472 1250.37 300.317C1249.66 300.665 1249.39 301.715 1249.79 302.391C1250.26 303.137 1251.1 303.318 1251.86 302.973C1252.81 302.507 1253.54 302.204 1254.44 301.856C1255.41 301.49 1256.39 301.158 1257.37 300.825C1259.27 300.19 1261.18 299.609 1263.07 298.908C1263.81 298.637 1264.41 297.891 1264.14 297.059C1263.95 296.308 1263.12 295.66 1262.31 295.948Z" fill="#83C5C4"/>
</g>
</svg>
