<svg width="1920" height="450" viewBox="0 0 1920 450" fill="none" xmlns="http://www.w3.org/2000/svg">
<mask id="mask0_1_4981" style="mask-type:alpha" maskUnits="userSpaceOnUse" x="-20" y="0" width="1940" height="450">
<path d="M0 0H1920L1900.5 450H-19.5L0 0Z" fill="#E3F1E9"/>
</mask>
<g mask="url(#mask0_1_4981)">
<path d="M818.233 193.895C811.991 191.135 804.247 186.25 804.123 176.619C804.045 170.083 806.983 164.083 808.375 157.964C811.052 146.193 807.433 133.241 801.406 123.972C795.222 114.446 786.198 107.679 776.603 105.58C771.89 104.54 767.025 104.668 762.418 106.176C757.792 107.684 753.377 110.539 749.297 113.609C740.219 120.465 732.172 129.685 725.698 140.222C719.34 150.577 714.218 162.625 712.361 175.688C711.511 181.719 711.347 188.036 712.238 194.119C713.316 201.431 716.201 208.188 719.966 213.885C727.672 225.534 739.126 233.377 750.698 236.814C762.242 240.217 774.068 236.55 782.363 225.909C786.695 220.352 789.569 213.499 792.358 206.613C793.774 203.128 795.456 199.409 798.595 198.149C801.687 196.902 804.884 198.179 807.762 199.762C810.238 201.145 812.594 202.863 815.07 204.222C815.51 204.469 815.928 204.302 816.194 203.795C817.373 201.469 818.785 199.372 819.512 196.715C819.85 195.447 818.228 194.963 817.89 196.232C817.232 198.673 815.807 200.663 814.726 202.809C815.107 202.666 815.469 202.525 815.85 202.382C811.233 199.856 806.657 195.596 801.449 195.568C794.971 195.544 792.34 202.022 789.781 208.426C787.047 215.239 783.759 221.784 779.148 226.828C774.745 231.64 769.276 234.777 763.466 235.681C751.567 237.547 738.78 230.979 729.277 222.043C724.418 217.472 720.11 211.839 717.17 205.132C714.422 198.857 713.235 191.988 713.309 184.878C713.437 171.822 717.538 159.295 723.047 148.527C728.822 137.253 736.435 127.358 745.09 119.589C752.839 112.644 761.81 106.598 771.627 107.017C781.406 107.436 790.966 113.285 797.833 122.09C804.496 130.651 809.193 143.486 807.108 155.547C806.046 161.715 803.348 167.269 802.6 173.557C801.795 180.417 804.418 186.612 808.891 190.567C811.615 192.974 814.709 194.563 817.825 195.925C818.892 196.39 819.243 194.338 818.233 193.895Z" fill="#D1D1D1"/>
<path d="M812.419 194.364C808.893 192.323 805.22 190.653 801.841 188.218C800.195 187.041 798.636 185.648 797.293 183.941C795.792 182.003 794.783 179.624 793.765 177.257C790.588 169.759 788.873 161.424 785.31 154.175C778.654 140.665 766.274 132.201 753.954 130.635C747.076 129.762 740.134 131.112 733.961 134.966C733.006 135.563 733.893 137.343 734.839 136.759C746 129.807 759.633 131.746 770.406 139.374C776.137 143.437 781.114 149.178 784.441 156.376C787.758 163.538 789.438 171.65 792.608 178.912C794.561 183.388 796.837 186.814 800.327 189.518C803.893 192.266 807.869 194.021 811.652 196.207C812.624 196.768 813.401 194.936 812.419 194.364Z" fill="#D1D1D1"/>
<path d="M793.55 188.384C774.458 184.482 754.117 183.908 736.518 172.457C731.411 169.137 726.754 164.891 722.752 159.691C722.01 158.72 720.884 160.234 721.626 161.205C736.091 179.948 757.317 184.329 776.848 187.567C782.304 188.474 787.766 189.298 793.199 190.407C794.237 190.635 794.597 188.6 793.55 188.384Z" fill="#D1D1D1"/>
<path d="M784.034 175.304C772.086 156.61 752.804 146.797 734.314 144.795C733.252 144.675 733.325 146.764 734.377 146.874C752.21 148.801 771.099 158.331 782.624 176.364C783.284 177.419 784.694 176.359 784.034 175.304Z" fill="#D1D1D1"/>
<path d="M767.733 170.63C760.043 169.213 752.838 164.931 746.359 159.573C745.465 158.832 744.696 160.678 745.59 161.419C752.175 166.856 759.552 171.227 767.373 172.664C768.419 172.856 768.798 170.821 767.733 170.63Z" fill="#D1D1D1"/>
<path d="M787.381 196.923C779.161 199.926 770.7 202.368 762.059 201.997C752.807 201.586 744.261 197.566 736.068 192.232C730.355 188.514 724.535 184.077 721.101 176.997C720.54 175.83 719.129 176.916 719.69 178.083C722.673 184.218 727.372 188.512 732.253 192.019C736.799 195.264 741.569 198.206 746.503 200.362C754.851 204.033 763.601 204.898 772.288 203.384C777.578 202.45 782.754 200.832 787.865 198.957C788.885 198.57 788.401 196.56 787.381 196.923Z" fill="#D1D1D1"/>
<path d="M784.702 205.231C778.779 213.593 770.97 219.513 762.138 221.459C752.093 223.656 741.871 220.643 733.634 212.864C728.665 208.159 724.422 202.354 719.911 196.983C719.132 196.059 717.995 197.564 718.784 198.499C727.172 208.49 735.115 219.846 746.864 223.048C755.887 225.505 765.308 224.122 773.487 218.913C778.221 215.898 782.401 211.655 785.929 206.686C786.631 205.669 785.413 204.225 784.702 205.231Z" fill="#D1D1D1"/>
<path d="M758.507 211.285C752.631 211.433 746.711 209.77 742.017 205.004C741.185 204.154 740.059 205.669 740.891 206.519C745.933 211.653 752.227 213.552 758.561 213.379C759.639 213.357 759.575 211.252 758.507 211.285Z" fill="#D1D1D1"/>
<path d="M773.415 193.709C766.247 193.518 759.183 191.806 752.219 189.665C751.177 189.342 750.817 191.379 751.859 191.702C758.956 193.887 766.17 195.617 773.469 195.805C774.549 195.831 774.486 193.747 773.415 193.709Z" fill="#D1D1D1"/>
<path d="M736.918 182.995C733.239 180.841 729.608 178.721 726.867 174.813C726.153 173.807 725.029 175.319 725.743 176.325C728.582 180.371 732.366 182.605 736.169 184.838C737.122 185.399 737.899 183.567 736.918 182.995Z" fill="#D1D1D1"/>
<path d="M734.751 158.973C731.303 157.116 728.028 154.829 724.57 152.985C723.589 152.46 722.821 154.305 723.802 154.831C727.251 156.687 730.525 158.974 733.983 160.818C734.973 161.331 735.742 159.51 734.751 158.973Z" fill="#D1D1D1"/>
<path d="M800.294 167.659C798.346 157.797 796.942 147.376 791.869 139.088C786.531 130.371 778.634 124.014 770.233 121.334C765.347 119.773 760.281 119.387 755.289 119.862C754.225 119.966 754.288 122.043 755.352 121.939C766.634 120.867 777.282 124.776 785.947 134.252C789.878 138.547 792.873 143.758 794.735 149.878C796.535 155.81 797.485 162.1 798.711 168.24C798.976 169.555 800.549 168.962 800.294 167.659Z" fill="#D1D1D1"/>
<path d="M800.714 139.674C798.536 134.82 796.366 129.884 793.431 125.656C790.438 121.335 786.679 118.265 782.353 116.547C781.34 116.142 780.981 118.171 781.994 118.576C786.187 120.251 789.732 123.339 792.583 127.582C795.276 131.57 797.27 136.229 799.307 140.756C799.838 141.932 801.236 140.861 800.714 139.674Z" fill="#D1D1D1"/>
<path d="M745.138 491.74C743.916 482.398 742.358 472.108 737.473 464.511C734.488 459.873 730.064 455.178 725.312 454.021C723.278 453.534 721.155 453.845 719.594 455.647C717.8 457.721 717.349 460.957 717.245 463.897C716.995 471.572 720.891 478.547 725.32 483.405C730.167 488.719 736.483 492.947 742.948 493.582C744.779 493.75 744.653 490.144 742.839 489.997C738.124 489.552 733.43 486.578 729.609 483.149C725.473 479.424 721.6 474.242 720.387 467.857C719.618 463.843 719.916 456.656 724.416 457.475C728.346 458.168 732.055 462.172 734.636 465.782C739.582 472.745 741.121 482.934 742.28 491.809C742.576 494.083 745.433 494.015 745.138 491.74Z" fill="#E1D4DB"/>
<path d="M901.12 521.471C930.842 521.708 965.877 506.692 975.893 471.238C976.187 470.235 975.386 469.222 974.672 468.82C966.246 464.131 956.448 464.634 947.925 465.282C938.506 466.003 929.788 467.763 921.329 472.168C912.837 476.582 906.183 482.554 900.794 491.588C898.026 496.237 895.659 501.257 893.403 506.361C892.4 508.632 891.407 510.946 890.426 513.234C889.738 514.859 888.636 516.477 888.64 518.42C888.637 519.167 889.226 520.189 889.896 520.355C893.673 521.298 897.353 521.046 901.12 521.471C903.132 521.696 902.944 517.88 900.932 517.655C897.456 517.245 893.988 517.555 890.514 516.737C890.936 517.396 891.348 518.013 891.77 518.672C891.775 517.45 893.496 514.699 894.048 513.449C894.973 511.288 895.898 509.128 896.868 507.001C898.92 502.424 901.083 497.932 903.592 493.734C908.746 485.099 915.353 479.569 923.464 475.412C931.565 471.281 939.98 469.735 948.973 469.101C957.015 468.533 966.153 468.11 974.054 472.505C973.644 471.685 973.244 470.907 972.833 470.087C968.007 487.134 956.389 498.888 943.457 506.418C930.569 513.914 915.827 517.799 900.955 517.672C898.942 517.651 899.129 521.467 901.12 521.471Z" fill="#DDD9DA"/>
<path d="M893.971 518.121C906.971 507.021 921.104 498.002 935.793 490.219C941.847 487.023 947.669 483.344 953.613 479.928C959.59 476.504 965.936 473.187 972.842 472.778C974.801 472.655 974.636 468.854 972.655 468.96C959.089 469.759 947.884 479.557 936.112 485.727C920.717 493.761 905.855 503.082 892.272 514.695C890.734 516.02 892.433 519.447 893.971 518.121Z" fill="#DDD9DA"/>
<path d="M1298.06 151.576C1304.49 141.029 1310.45 128.6 1311.55 116.083C1312.61 104.21 1307.89 94.8667 1299.46 90.2865C1291.79 86.1155 1282.52 85.3877 1273.69 85.7725C1263.83 86.2038 1253.54 88.1751 1243.83 92.4919C1236.96 95.5619 1229.56 99.9923 1225.95 108.353C1222.79 115.651 1223.46 123.656 1225.16 130.513C1227.22 138.876 1230.9 146.383 1234.96 153.304C1238.74 159.813 1242.95 166.459 1247.95 171.627C1254.4 178.28 1263.06 181.42 1272.31 177.451C1282.97 172.879 1290.48 162.169 1298.1 152.316C1299.13 150.991 1297.8 149.121 1296.76 150.458C1290.29 158.833 1284.06 167.886 1275.48 173.09C1268.09 177.586 1260.38 177.626 1253.99 173.295C1248.18 169.331 1243.89 162.739 1239.86 156.503C1235.94 150.419 1232.34 143.922 1229.64 136.816C1227.18 130.387 1225.13 122.899 1226.23 115.184C1227.38 107.211 1232.36 101.649 1238.36 98.0188C1246.65 92.9792 1255.86 90.5294 1264.61 89.2475C1273.66 87.9217 1282.95 87.7717 1291.45 90.0684C1300.92 92.6164 1309.18 99.4135 1309.49 112.136C1309.82 125.299 1303.04 139.198 1296.3 150.259C1295.4 151.754 1297.15 153.053 1298.06 151.576Z" fill="#D3CBCF"/>
<path d="M1298.94 157.161C1300.85 154.575 1303.14 152.147 1305.88 151.284C1308.14 150.573 1310.36 151.091 1312.31 152.083C1316.86 154.409 1320.38 158.788 1324.16 162.364C1326.12 164.232 1328.17 166.016 1330.61 167.072C1330.81 166.217 1331 165.344 1331.19 164.471C1320.3 163.214 1305.95 166.958 1299.58 154.904C1298.88 153.576 1297.12 155.47 1297.81 156.809C1304.55 169.531 1319.41 165.793 1330.88 167.126C1332.17 167.275 1332.51 164.967 1331.47 164.515C1326.81 162.471 1323.31 157.713 1319.53 154.203C1315.88 150.814 1311.34 147.233 1306.04 148.595C1302.73 149.448 1299.87 152.223 1297.57 155.311C1296.58 156.664 1297.91 158.535 1298.94 157.161Z" fill="#D3CBCF"/>
<path d="M1298.73 157.328C1304.17 164.252 1308.24 173.796 1305.93 184.401C1306.54 184.003 1307.16 183.605 1307.78 183.207C1304.02 180.771 1301.55 176.158 1300.04 171.424C1298.53 166.69 1297.74 160.907 1299.49 155.573C1300.04 153.853 1297.92 153.156 1297.36 154.876C1295.43 160.799 1296.16 167.114 1297.78 172.435C1299.41 177.707 1302.19 182.909 1306.38 185.586C1307.16 186.073 1308 185.433 1308.24 184.391C1310.7 173.102 1306.36 162.719 1300.6 155.353C1299.63 154.168 1297.78 156.132 1298.73 157.328Z" fill="#D3CBCF"/>
<path d="M1298.66 155.253C1304.18 140.468 1318.93 133.286 1330.03 138.889C1329.95 138.176 1329.86 137.464 1329.8 136.758C1327.53 139.39 1325.46 142.261 1323.17 144.875C1321.02 147.361 1318.54 149.99 1315.63 150.623C1314.24 150.929 1314.51 153.384 1315.89 153.106C1322.11 151.765 1326.76 143.608 1331.13 138.55C1331.8 137.771 1331.61 136.775 1330.9 136.419C1318.74 130.296 1302.68 138.607 1296.7 154.611C1296.09 156.187 1298.07 156.836 1298.66 155.253Z" fill="#D3CBCF"/>
<path d="M1303.01 114.446C1301.57 113.168 1299.68 112.953 1297.87 112.666C1297.61 112.631 1297.24 112.849 1297.04 113.073C1296.84 113.297 1296.65 113.67 1296.62 114.002C1296.59 114.363 1296.64 114.717 1296.84 114.945C1297.04 115.203 1297.27 115.279 1297.57 115.311C1297.5 115.307 1297.26 115.26 1297.57 115.311C1297.63 115.315 1297.7 115.338 1297.76 115.342C1297.87 115.362 1298 115.371 1298.1 115.39C1298.32 115.429 1298.56 115.457 1298.78 115.514C1299.18 115.596 1299.57 115.677 1299.96 115.787C1300.14 115.829 1300.3 115.9 1300.47 115.971C1300.55 116.012 1300.64 116.042 1300.72 116.083C1300.76 116.099 1300.81 116.114 1300.84 116.14C1301.01 116.229 1300.59 116.009 1300.76 116.099C1301.1 116.288 1301.4 116.5 1301.69 116.74C1302.11 117.12 1302.92 116.838 1303.25 116.218C1303.58 115.569 1303.48 114.842 1303.01 114.446Z" fill="#D3CBCF"/>
<path d="M1293.15 137.727C1292.11 137.565 1291.13 137.18 1290.19 136.727C1290.14 136.693 1290.09 136.678 1290.04 136.644C1290.17 136.719 1290.11 136.685 1290.01 136.637C1289.89 136.58 1289.78 136.513 1289.66 136.457C1289.43 136.333 1289.2 136.192 1288.99 136.057C1288.51 135.774 1288.04 135.472 1287.56 135.17C1287.08 134.867 1286.35 135.002 1285.99 135.694C1285.66 136.298 1285.67 137.178 1286.2 137.513C1288.11 138.703 1290.05 139.956 1292.29 140.314C1292.59 140.365 1292.84 140.364 1293.14 140.17C1293.38 140.008 1293.65 139.674 1293.74 139.364C1293.92 138.725 1293.73 137.821 1293.15 137.727Z" fill="#D3CBCF"/>
<path d="M1277.2 163.232C1276.98 163.24 1276.76 163.249 1276.54 163.257C1276.43 163.256 1276.33 163.255 1276.22 163.236C1276.16 163.231 1276.11 163.216 1276.05 163.212C1276.01 163.215 1275.83 163.173 1276.03 163.204C1276.22 163.236 1276.04 163.193 1276.01 163.196C1275.94 163.192 1275.9 163.177 1275.83 163.173C1275.72 163.153 1275.61 163.115 1275.5 163.096C1275.3 163.046 1275.11 162.967 1274.91 162.888C1274.81 162.839 1274.72 162.809 1274.62 162.76C1274.47 162.678 1274.62 162.76 1274.69 162.783C1274.64 162.75 1274.59 162.734 1274.54 162.701C1274.36 162.593 1274.17 162.466 1273.98 162.34C1273.79 162.213 1273.61 162.058 1273.44 161.92C1273.34 161.824 1273.25 161.746 1273.16 161.65C1273.09 161.58 1272.99 161.418 1273.16 161.669C1273.12 161.606 1273.07 161.572 1273.03 161.51C1272.82 161.281 1272.6 161.128 1272.3 161.143C1272.03 161.137 1271.68 161.297 1271.47 161.551C1271.06 162.047 1270.84 162.963 1271.26 163.439C1272.06 164.3 1272.94 164.994 1273.99 165.449C1274.88 165.839 1275.88 165.986 1276.87 165.905C1277.44 165.868 1278.06 165.326 1278.14 164.574C1278.19 163.879 1277.82 163.191 1277.2 163.232Z" fill="#D3CBCF"/>
<path d="M1285.91 119.371C1284.23 118.661 1282.49 117.947 1280.58 118.093C1280 118.13 1279.39 118.668 1279.32 119.415C1279.25 120.087 1279.63 120.789 1280.25 120.749C1280.7 120.703 1281.13 120.733 1281.58 120.782C1281.62 120.779 1281.66 120.794 1281.71 120.809C1281.42 120.795 1281.6 120.79 1281.66 120.794C1281.77 120.813 1281.88 120.833 1281.99 120.852C1282.2 120.891 1282.41 120.959 1282.61 121.008C1283.45 121.25 1284.24 121.59 1285.03 121.93C1285.54 122.161 1286.29 121.65 1286.48 120.987C1286.71 120.245 1286.46 119.617 1285.91 119.371Z" fill="#D3CBCF"/>
<path d="M1274.93 140.282C1273.31 140.027 1271.79 139.32 1270.29 138.669C1269.77 138.447 1269.03 138.95 1268.85 139.615C1268.63 140.35 1268.88 140.998 1269.43 141.227C1270.92 141.86 1272.44 142.567 1274.07 142.841C1274.37 142.891 1274.62 142.891 1274.91 142.697C1275.16 142.535 1275.42 142.203 1275.52 141.894C1275.62 141.556 1275.64 141.177 1275.52 140.894C1275.42 140.62 1275.21 140.325 1274.93 140.282Z" fill="#D3CBCF"/>
<path d="M1278.28 101.145C1275.43 100.692 1272.67 99.837 1269.81 99.3836C1269.25 99.2975 1268.59 99.5762 1268.37 100.324C1268.17 100.949 1268.36 101.843 1268.95 101.926C1271.81 102.379 1274.57 103.234 1277.43 103.687C1277.98 103.773 1278.65 103.495 1278.86 102.747C1279.05 102.133 1278.86 101.239 1278.28 101.145Z" fill="#D3CBCF"/>
<path d="M1267.03 122.217C1265.55 122.001 1263.99 122.163 1262.5 121.947C1262.25 121.911 1261.88 122.127 1261.68 122.348C1261.48 122.57 1261.29 122.939 1261.27 123.267C1261.24 123.624 1261.29 123.974 1261.49 124.2C1261.68 124.455 1261.91 124.53 1262.21 124.562C1263.7 124.778 1265.25 124.616 1266.74 124.832C1266.99 124.868 1267.36 124.652 1267.56 124.431C1267.76 124.209 1267.95 123.84 1267.97 123.512C1268 123.155 1267.95 122.805 1267.75 122.579C1267.54 122.335 1267.33 122.249 1267.03 122.217Z" fill="#D3CBCF"/>
<path d="M1258.55 150.385C1256.65 149.196 1254.65 148.216 1252.87 146.818C1252.41 146.455 1251.64 146.708 1251.3 147.345C1250.94 148.011 1251 148.796 1251.51 149.174C1253.31 150.561 1255.29 151.553 1257.18 152.742C1257.66 153.046 1258.39 152.911 1258.76 152.215C1259.07 151.6 1259.06 150.715 1258.55 150.385Z" fill="#D3CBCF"/>
<path d="M1258.11 109.083C1256.16 108.781 1254.33 108.056 1252.37 107.736C1252.07 107.685 1251.83 107.686 1251.53 107.879C1251.29 108.039 1251.02 108.37 1250.93 108.678C1250.74 109.304 1250.92 110.199 1251.52 110.283C1253.47 110.584 1255.29 111.31 1257.25 111.63C1257.56 111.681 1257.8 111.68 1258.09 111.487C1258.34 111.326 1258.61 110.995 1258.7 110.688C1258.88 110.072 1258.69 109.177 1258.11 109.083Z" fill="#D3CBCF"/>
<path d="M1251.76 132.044C1249.93 131.249 1248.08 130.501 1246.19 129.833C1245.66 129.659 1244.94 130.085 1244.74 130.781C1244.53 131.488 1244.76 132.196 1245.33 132.396C1247.21 133.046 1249.06 133.812 1250.9 134.608C1251.43 134.829 1252.16 134.326 1252.35 133.659C1252.57 132.923 1252.32 132.274 1251.76 132.044Z" fill="#D3CBCF"/>
<path d="M1240.31 111.239C1238.67 110.54 1237.05 109.848 1235.42 109.138C1234.89 108.917 1234.16 109.421 1233.97 110.088C1233.75 110.825 1234.01 111.475 1234.56 111.704C1236.18 112.414 1237.82 113.095 1239.44 113.805C1239.97 114.027 1240.71 113.523 1240.9 112.855C1241.12 112.137 1240.87 111.486 1240.31 111.239Z" fill="#D3CBCF"/>
<path d="M1246.17 98.0251C1245.72 98.0708 1245.29 98.0404 1244.84 97.9918C1244.8 97.995 1244.76 97.9799 1244.71 97.9648C1245 97.979 1244.82 97.9842 1244.76 97.9799C1244.65 97.9605 1244.54 97.9411 1244.43 97.9217C1244.22 97.8829 1244.01 97.8151 1243.81 97.7656C1242.97 97.5235 1242.18 97.1838 1241.39 96.8441C1240.86 96.6237 1240.13 97.1241 1239.94 97.7869C1239.72 98.5184 1239.98 99.1645 1240.53 99.3924C1242.2 100.102 1243.94 100.816 1245.86 100.67C1246.43 100.633 1247.05 100.095 1247.12 99.3477C1247.16 98.6686 1246.78 97.9666 1246.17 98.0251Z" fill="#D3CBCF"/>
<path d="M1239.45 131.231C1238.86 131.136 1238.29 130.965 1237.76 130.677C1237.83 130.718 1237.92 130.748 1238.01 130.808C1237.35 130.463 1236.75 129.99 1236.19 129.467C1236 129.292 1235.64 129.255 1235.38 129.333C1235.11 129.422 1234.79 129.675 1234.63 129.963C1234.48 130.269 1234.36 130.62 1234.4 130.958C1234.45 131.314 1234.6 131.558 1234.82 131.777C1235.92 132.768 1237.14 133.56 1238.58 133.785C1238.88 133.836 1239.13 133.835 1239.43 133.641C1239.67 133.478 1239.94 133.144 1240.03 132.833C1240.13 132.493 1240.16 132.112 1240.04 131.828C1239.94 131.57 1239.73 131.275 1239.45 131.231Z" fill="#D3CBCF"/>
<path d="M1264.84 168.514C1263.01 167.718 1261.27 166.65 1259.27 166.302C1258.97 166.251 1258.72 166.252 1258.43 166.446C1258.18 166.608 1257.91 166.941 1257.82 167.251C1257.62 167.881 1257.81 168.782 1258.41 168.865C1260.42 169.184 1262.14 170.281 1263.98 171.077C1264.49 171.309 1265.24 170.795 1265.43 170.128C1265.67 169.382 1265.4 168.761 1264.84 168.514Z" fill="#D3CBCF"/>
<path d="M1292.89 98.4549C1291.63 97.6519 1290.19 97.0699 1288.7 96.823C1288.39 96.7721 1288.15 96.773 1287.85 96.9669C1287.61 97.1284 1287.34 97.4613 1287.25 97.7706C1287.15 98.109 1287.12 98.4884 1287.25 98.7709C1287.36 99.0351 1287.57 99.3295 1287.83 99.3836C1289 99.572 1290.11 99.9824 1291.14 100.531C1291.07 100.49 1290.97 100.459 1290.89 100.4C1291.11 100.505 1291.32 100.62 1291.53 100.754C1291.77 100.914 1292.04 100.968 1292.33 100.887C1292.61 100.799 1292.92 100.547 1293.08 100.261C1293.41 99.6582 1293.4 98.7818 1292.89 98.4549Z" fill="#D3CBCF"/>
<path d="M1299.82 155.557C1303.16 156.568 1306.55 157.499 1309.76 158.888C1310.28 159.109 1310.99 158.6 1311.2 157.942C1311.45 157.216 1311.15 156.552 1310.62 156.331C1307.39 154.953 1304.02 154.029 1300.66 153.01C1300.12 152.847 1299.45 153.259 1299.22 153.956C1299 154.643 1299.26 155.404 1299.82 155.557Z" fill="#D3CBCF"/>
</g>
</svg>
